<svg xmlns="http://www.w3.org/2000/svg" xmlns:xlink="http://www.w3.org/1999/xlink" width="748" height="696" viewBox="0 0 748 696">
  <defs>
    <clipPath id="clip-path">
      <rect id="長方形_142" data-name="長方形 142" width="48" height="48" fill="#fed3c4"/>
    </clipPath>
    <clipPath id="clip-path-3">
      <rect id="長方形_142-3" data-name="長方形 142" width="48" height="48" transform="translate(472 1270)" fill="#fed3c4"/>
    </clipPath>
  </defs>
  <g id="solutionInfoGraphic" transform="translate(-992 -1060)">
    <g id="back">
      <g id="グループ_94" data-name="グループ 94">
        <circle id="楕円形_20" data-name="楕円形 20" cx="300" cy="300" r="300" transform="translate(1066 1138)" fill="#f9f3ee"/>
        <circle id="楕円形_21" data-name="楕円形 21" cx="260" cy="260" r="260" transform="translate(1106 1178)" fill="#fed3c4"/>
      </g>
      <circle id="楕円形_22" data-name="楕円形 22" cx="220" cy="220" r="220" transform="translate(1146 1216)" fill="#fff"/>
      <path id="パス_413" data-name="パス 413" d="M-74.88-8.6h11.02v2.16H-74.88Zm2.06-4.92h8.44v2.16h-8.44ZM-70.48-17h2.34V1.78h-2.34Zm-.66,9.52,1.86.56a20.5,20.5,0,0,1-1.37,3.05,17.718,17.718,0,0,1-1.81,2.69A11.933,11.933,0,0,1-74.6.88a6.636,6.636,0,0,0-.47-.63q-.29-.35-.59-.67a6.822,6.822,0,0,0-.56-.54,9.577,9.577,0,0,0,2.07-1.7A14.949,14.949,0,0,0-72.4-4.95,14.2,14.2,0,0,0-71.14-7.48Zm3.74.1a16.259,16.259,0,0,0,1.06,2.35,16.5,16.5,0,0,0,1.43,2.19,11.309,11.309,0,0,0,1.59,1.7q-.26.22-.59.54a8.739,8.739,0,0,0-.63.68,7.855,7.855,0,0,0-.5.66,11.675,11.675,0,0,1-1.59-2.09A21.627,21.627,0,0,1-68-4.01a27.181,27.181,0,0,1-1.06-2.87ZM-73.52-16l2.2.38a25.69,25.69,0,0,1-.86,3.71,11.665,11.665,0,0,1-1.36,2.99,4.7,4.7,0,0,0-.55-.41q-.35-.23-.7-.44t-.63-.35a9.148,9.148,0,0,0,1.21-2.64A21.041,21.041,0,0,0-73.52-16Zm-8.76,2.74h7.24v2.22h-7.24Zm2.6-3.74h2.36V1.78h-2.36Zm-.02,5.38,1.28.52q-.2,1.24-.52,2.55t-.73,2.56a24.676,24.676,0,0,1-.89,2.33,11.645,11.645,0,0,1-1,1.84,6.05,6.05,0,0,0-.3-.78q-.2-.44-.42-.88t-.42-.76a10.31,10.31,0,0,0,.94-1.49A19.466,19.466,0,0,0-80.9-7.6q.4-1,.71-2.04A20.354,20.354,0,0,0-79.7-11.62Zm2.26,1.02q.18.22.53.74t.75,1.14q.4.62.74,1.16t.46.76l-1.4,1.62q-.16-.46-.43-1.08t-.59-1.28q-.32-.66-.61-1.24t-.51-.96Zm29.62-5.08L-46.24-17q.46.3.97.7t.96.8a8.367,8.367,0,0,1,.73.72l-1.7,1.46a4.7,4.7,0,0,0-.67-.77q-.43-.41-.92-.83T-47.82-15.68Zm-13.26,2.1h18v2.34h-18Zm.76,4.62h8.66v2.32h-8.66Zm3.02,1.32h2.4V-.86h-2.4Zm-3.78,6.46,2.83-.47q1.63-.27,3.46-.59t3.65-.66l.16,2.14q-1.64.36-3.32.71t-3.24.68l-2.88.61Zm9.84-15.74h2.58q-.06,2.48.07,4.84t.43,4.42a31.546,31.546,0,0,0,.72,3.62,10.351,10.351,0,0,0,.93,2.44q.51.88,1.09.88.34,0,.51-.86a20.238,20.238,0,0,0,.25-2.76,6.9,6.9,0,0,0,1.01.82,5.008,5.008,0,0,0,1.09.58,12.078,12.078,0,0,1-.53,2.93,2.691,2.691,0,0,1-.98,1.42,2.869,2.869,0,0,1-1.57.39,2.822,2.822,0,0,1-1.92-.74A6.248,6.248,0,0,1-49.02-.99a15.645,15.645,0,0,1-1.04-3.09,36.527,36.527,0,0,1-.68-3.87q-.26-2.09-.38-4.37T-51.24-16.92Zm12,15.76q1.78-.06,4.13-.13t4.94-.17l5.11-.2-.08,2.2q-2.44.14-4.95.25t-4.77.22q-2.26.11-4.08.19Zm-.1-5.94h16.62v2.24H-39.34Zm3.56-3.86h9.38v2.2h-9.38Zm1.32,5.32,2.74.74q-.46.94-.97,1.91t-1,1.85q-.49.88-.93,1.56l-2.1-.7q.4-.74.84-1.67t.81-1.9Q-34.7-4.82-34.46-5.64Zm4.98,2.06,2.1-1.12q.9.78,1.78,1.68t1.62,1.81A15.064,15.064,0,0,1-22.78.46l-2.24,1.36A12.252,12.252,0,0,0-26.15.11q-.73-.95-1.6-1.93A22.881,22.881,0,0,0-29.48-3.58Zm-1.64-11.08a15.518,15.518,0,0,1-2.06,2.33,23.339,23.339,0,0,1-2.8,2.25,24.062,24.062,0,0,1-3.2,1.86,3.649,3.649,0,0,0-.37-.67q-.25-.37-.52-.72a6.336,6.336,0,0,0-.53-.61,18.558,18.558,0,0,0,3.3-1.89,21.529,21.529,0,0,0,2.83-2.4,14.675,14.675,0,0,0,1.99-2.45h2.52a17.474,17.474,0,0,0,1.78,2.08,18.2,18.2,0,0,0,2.08,1.79,19.091,19.091,0,0,0,2.27,1.44,18.246,18.246,0,0,0,2.37,1.07,6.8,6.8,0,0,0-.84,1.04q-.4.6-.72,1.14a23.583,23.583,0,0,1-3.04-1.72,25.7,25.7,0,0,1-2.87-2.2A15.586,15.586,0,0,1-31.12-14.66ZM-11.9-1.14H-.52V1.22H-11.9Zm.82-9.66H-1v2.32H-11.08Zm3.8-6H-4.8V0H-7.28Zm-11.8,3.52h6.54v2.16h-6.54Zm2.86,6.82,2.38-2.84V1.8h-2.38Zm0-10.52h2.38v4.7h-2.38Zm2.12,8.36a8.372,8.372,0,0,1,.77.59q.49.41,1.05.9t1.02.9l.66.59-1.44,1.96q-.3-.38-.73-.89t-.91-1.05q-.48-.54-.94-1.02t-.78-.8Zm.7-4.66h.46l.42-.1,1.34.88a17.889,17.889,0,0,1-1.94,3.73,21.056,21.056,0,0,1-2.64,3.19A17.286,17.286,0,0,1-18.7-3.22a6.386,6.386,0,0,0-.31-.77q-.21-.45-.42-.86a3.568,3.568,0,0,0-.41-.65A12.143,12.143,0,0,0-17.2-7.39a16.673,16.673,0,0,0,2.26-2.58,12.265,12.265,0,0,0,1.54-2.89ZM4.18-14.36q2.2.26,4.05.31a33.507,33.507,0,0,0,3.43-.07,26.278,26.278,0,0,0,2.64-.36,22.471,22.471,0,0,0,2.48-.62l.32,2.3q-1.08.3-2.34.52t-2.58.34q-1.54.12-3.55.11t-4.31-.23Zm-.36,4.2q1.82.16,3.48.22t3.12,0q1.46-.06,2.66-.16a20.076,20.076,0,0,0,2.78-.41q1.16-.27,2.02-.51l.4,2.36q-.9.22-1.98.42T14-7.9q-1.28.12-2.93.19T7.6-7.67Q5.78-7.7,3.96-7.8ZM10.5-13.8q-.14-.56-.32-1.11t-.4-1.13l2.7-.3q.12.94.31,1.85t.44,1.75q.25.84.49,1.62.24.68.63,1.55t.85,1.74q.46.87.92,1.57.2.28.41.53a4.247,4.247,0,0,0,.49.49L15.8-3.4q-.56-.12-1.39-.24t-1.72-.22q-.89-.1-1.63-.18l.2-1.9q.62.06,1.35.12t1.17.12a24.835,24.835,0,0,1-1.37-2.62q-.57-1.28-.95-2.38-.24-.7-.4-1.21t-.29-.96Q10.64-13.32,10.5-13.8ZM7.66-5.52a7.156,7.156,0,0,0-.62,1.03A2.666,2.666,0,0,0,6.78-3.3,1.65,1.65,0,0,0,7.81-1.71a7.246,7.246,0,0,0,3.01.49q1.42,0,2.69-.12t2.33-.32L15.7.88q-1.04.18-2.34.28t-2.52.1A12.492,12.492,0,0,1,7.39.84,4.7,4.7,0,0,1,5.14-.47a3.4,3.4,0,0,1-.82-2.31,4.893,4.893,0,0,1,.25-1.73A15.491,15.491,0,0,1,5.18-6Zm16.3-2.94q.46-.1,1.06-.25T26.08-9q.5-.16,1.34-.42t1.85-.52q1.01-.26,2.04-.44a11.347,11.347,0,0,1,1.95-.18,6.162,6.162,0,0,1,2.77.59,4.368,4.368,0,0,1,1.85,1.69,5,5,0,0,1,.66,2.62,5.238,5.238,0,0,1-.59,2.48,5.583,5.583,0,0,1-1.79,1.96A10.279,10.279,0,0,1,33.17.15,18.623,18.623,0,0,1,29,.82L27.94-1.64a20.737,20.737,0,0,0,3.17-.3,10.519,10.519,0,0,0,2.52-.75,4.332,4.332,0,0,0,1.66-1.25,2.789,2.789,0,0,0,.59-1.76,2.49,2.49,0,0,0-.35-1.33,2.38,2.38,0,0,0-.99-.89,3.363,3.363,0,0,0-1.52-.32,7.679,7.679,0,0,0-1.56.18q-.86.18-1.77.46T27.9-7q-.88.32-1.64.62T25-5.86ZM51.34-15.8q-.1.38-.19.83t-.17.83q-.08.44-.2.99t-.23,1.1q-.11.55-.23,1.07-.2.86-.5,2t-.7,2.45q-.4,1.31-.9,2.63T47.16-1.33A17.274,17.274,0,0,1,45.96.92L43.36-.12a15.6,15.6,0,0,0,1.31-2.11q.61-1.17,1.11-2.41t.89-2.44q.39-1.2.67-2.24t.44-1.78q.28-1.36.44-2.62a16.58,16.58,0,0,0,.14-2.38Zm6.88,1.88a12.07,12.07,0,0,1,.99,1.61q.51.97,1,2.05t.9,2.08q.41,1,.63,1.7L59.2-5.3q-.2-.84-.55-1.87t-.8-2.1q-.45-1.07-.96-2.03a9.113,9.113,0,0,0-1.05-1.6Zm-15,2.22q.54.04,1.06.03t1.08-.03q.48-.02,1.19-.07t1.5-.11q.79-.06,1.59-.13t1.48-.11q.68-.04,1.12-.04a4.679,4.679,0,0,1,1.87.35,2.659,2.659,0,0,1,1.28,1.19,4.682,4.682,0,0,1,.47,2.28q0,1.18-.11,2.56a24.525,24.525,0,0,1-.35,2.64A8.248,8.248,0,0,1,54.72-1,2.824,2.824,0,0,1,53.41.44a4.5,4.5,0,0,1-1.97.4A8.986,8.986,0,0,1,50.21.75Q49.56.66,49.04.56L48.6-2.08q.4.1.87.2t.9.16a5.246,5.246,0,0,0,.69.06,1.943,1.943,0,0,0,.88-.19,1.422,1.422,0,0,0,.62-.67,6.012,6.012,0,0,0,.45-1.5q.17-.92.26-1.99t.09-2.05a2.436,2.436,0,0,0-.22-1.18,1.087,1.087,0,0,0-.65-.51,3.752,3.752,0,0,0-1.07-.13q-.44,0-1.23.07t-1.67.16q-.88.09-1.65.19t-1.19.14q-.42.08-1.09.17t-1.13.17Zm35.44-4.2q-.04.32-.06.67t-.04.69q-.02.28-.01.85t.01,1.28v1.44q0,.73.01,1.35t.01.96q0,1.78-.13,3.23a10.951,10.951,0,0,1-.56,2.67A7.272,7.272,0,0,1,76.59-.5a10.3,10.3,0,0,1-2.37,2L71.92-.32a8.018,8.018,0,0,0,1.24-.69,5.3,5.3,0,0,0,1.08-.91,5.845,5.845,0,0,0,.94-1.26,6.463,6.463,0,0,0,.57-1.46,9.766,9.766,0,0,0,.28-1.78q.07-.98.07-2.26v-1.36q0-.82-.02-1.7t-.04-1.63q-.02-.75-.06-1.15a5.9,5.9,0,0,0-.09-.76q-.07-.38-.13-.62ZM70.78-12q.48.06.98.11t1.01.08q.51.03,1.03.03,1.3,0,2.72-.06t2.74-.19q1.32-.13,2.3-.31l-.02,2.6q-.94.1-2.22.19t-2.69.14q-1.41.05-2.77.05-.42,0-.96-.02l-1.08-.04-1.04-.04Zm-2.06-3.56q-.12.36-.26.83t-.22.79q-.18.82-.38,1.97t-.34,2.39a21.654,21.654,0,0,0-.14,2.43,9.994,9.994,0,0,0,.2,2.11q.2-.46.46-1.11t.5-1.21l1.24.8q-.28.86-.55,1.77t-.47,1.72q-.2.81-.34,1.39a3.208,3.208,0,0,0-.09.51q-.03.29-.03.47,0,.14.01.38t.03.44L66.12.34q-.22-.6-.49-1.65a23.041,23.041,0,0,1-.46-2.32,16.946,16.946,0,0,1-.19-2.51q0-1.64.11-3.16t.27-2.77q.16-1.25.26-2.05a6.155,6.155,0,0,0,.1-.89q.02-.47.04-.85Z" transform="translate(1366 1467.881)" fill="#070707"/>
      <path id="パス_406" data-name="パス 406" d="M37.563,29.52l-.123-.179c-.261-.378-.64-.916-.853-1.225l-2.5-3.636c-.47-.641-.916-.762-2.395-.6-6.018.668-8.314-7.227-3.4-9.709a2.174,2.174,0,0,0,1.494-1.965V10.5a2,2,0,0,0-2.2-1.815H22.524L22.4,7.645c0-9.91-14.516-10.414-14.516-.168l-.018,1.2H2.578c-1.946,0-2.695.913-2.563,2.408l.523,3.523a1.206,1.206,0,0,0,1.444.855L4.54,14.259l.215-.1A5.659,5.659,0,0,1,9.089,24.609a5.381,5.381,0,0,1-.705.23L5.8,25.586c-2.835.933-2.81,3.256-1.884,5.652l.573,1.316a84.1,84.1,0,0,0,9.5,15.584,1.819,1.819,0,0,0,3.29-1.386C13.366,32.2,27.939,27.086,35.569,31.127c.1.05.19.106.286.157,1.4.742,2.586-.472,1.708-1.764" transform="translate(1347.068 1374.119)" fill="#ff8a7a"/>
      <path id="パス_407" data-name="パス 407" d="M30.212,81.807c0,1.237-4.713,2.24-10.527,2.24s-10.527-1-10.527-2.24,4.713-2.24,10.527-2.24,10.527,1,10.527,2.24" transform="translate(1344.157 1344.834)" fill="#ff8a7a"/>
    </g>
    <g id="Point-list_" data-name="Point-list ">
      <g id="Point">
        <g id="back-2" data-name="back">
          <g id="楕円形_14" data-name="楕円形 14" transform="translate(1261 1060)" fill="#fff" stroke="#f57f6a" stroke-width="2">
            <circle cx="100" cy="100" r="100" stroke="none"/>
            <circle cx="100" cy="100" r="99" fill="none"/>
          </g>
          <circle id="楕円形_19" data-name="楕円形 19" cx="90" cy="90" r="90" transform="translate(1271 1070)" fill="#f9f3ee"/>
        </g>
        <g id="text" transform="translate(0 4)">
          <path id="パス_408" data-name="パス 408" d="M1.264-12.048l.848-1.312q.544.128,1.168.328t1.224.416q.6.216,1,.408L4.64-10.752q-.384-.192-.96-.44t-1.216-.472Q1.824-11.888,1.264-12.048Zm-.7,2.7q.88-.16,2.12-.448t2.5-.576l.176,1.5q-1.04.336-2.1.632L1.28-7.68Zm7.088-3.184h6.144v1.36H6.576Zm5.7,0h.272l.288-.064,1.264.336a14.631,14.631,0,0,1-.712,1.312,8.544,8.544,0,0,1-.792,1.12l-1.5-.464a7.3,7.3,0,0,0,.656-.952,7.265,7.265,0,0,0,.528-1.064ZM9.3-11.952h1.712a6.61,6.61,0,0,1-.384,1.544,3.671,3.671,0,0,1-.792,1.232A4.569,4.569,0,0,1,8.44-8.24a10.265,10.265,0,0,1-2.232.672A3.977,3.977,0,0,0,5.84-8.28a3.707,3.707,0,0,0-.5-.648,10.6,10.6,0,0,0,1.888-.464,3.623,3.623,0,0,0,1.144-.632,2.365,2.365,0,0,0,.616-.84A4.494,4.494,0,0,0,9.3-11.952Zm1.616.4a3.1,3.1,0,0,0,.328.864,2.377,2.377,0,0,0,.712.76A4.682,4.682,0,0,0,13.3-9.32,13.025,13.025,0,0,0,15.52-8.9a4.164,4.164,0,0,0-.544.752,6.02,6.02,0,0,0-.416.832,9.74,9.74,0,0,1-2.44-.672,4.929,4.929,0,0,1-1.488-.976,3.963,3.963,0,0,1-.816-1.176,8.018,8.018,0,0,1-.44-1.256ZM7.6-13.6l1.7.288A12.881,12.881,0,0,1,8.208-11.5,8.215,8.215,0,0,1,6.672-9.888a3.576,3.576,0,0,0-.68-.512,5.709,5.709,0,0,0-.776-.4,6.8,6.8,0,0,0,1.472-1.352A7.018,7.018,0,0,0,7.6-13.6ZM4.592-4.88v.672h6.96V-4.88Zm0,1.76v.7h6.96v-.7Zm0-3.536v.688h6.96v-.688ZM2.736-7.792H13.488V-1.28H2.736ZM8.9-.432l1.6-.912q.864.3,1.752.648t1.7.688q.808.344,1.368.616l-2.24.864q-.448-.256-1.12-.592T10.5.2Q9.728-.144,8.9-.432ZM5.36-1.408l1.744.8A12.088,12.088,0,0,1,5.6.208q-.864.4-1.776.728T2.1,1.488Q1.92,1.3,1.672,1.032T1.152.5A5.722,5.722,0,0,0,.672.08Q1.52-.08,2.392-.3A16.622,16.622,0,0,0,4.04-.816,9.519,9.519,0,0,0,5.36-1.408ZM24.736-11.76A14.555,14.555,0,0,1,23.08-9.872,21.445,21.445,0,0,1,20.872-8a20.48,20.48,0,0,1-2.52,1.6,5.374,5.374,0,0,0-.328-.528q-.2-.288-.432-.56t-.44-.48a14.845,14.845,0,0,0,2.64-1.624,19.109,19.109,0,0,0,2.264-2.024,12.245,12.245,0,0,0,1.592-2.032h2a17.11,17.11,0,0,0,1.44,1.744,15.258,15.258,0,0,0,1.68,1.536A17.1,17.1,0,0,0,30.608-9.1a13.721,13.721,0,0,0,1.9.944,5.946,5.946,0,0,0-.688.832q-.32.464-.592.9a20.819,20.819,0,0,1-1.848-1.1,22.135,22.135,0,0,1-1.8-1.336q-.864-.712-1.6-1.448A12.235,12.235,0,0,1,24.736-11.76Zm-4,2.96h8.048v1.68H20.736Zm-1.92,3.264H30.672v1.664H18.816Zm-.8,4.864h13.6V.976h-13.6ZM23.7-8.128h2.032V.16H23.7ZM19.824-3.264,21.36-3.9q.3.4.6.88t.536.944a5.051,5.051,0,0,1,.352.832L21.2-.512a5.332,5.332,0,0,0-.32-.856q-.224-.488-.5-.984A10.318,10.318,0,0,0,19.824-3.264Zm8.128-.624,1.84.672q-.48.736-.992,1.464t-.944,1.24l-1.44-.608q.272-.384.56-.856t.544-.976Q27.776-3.456,27.952-3.888Zm15.36-7.872v1.008h2.144V-11.76Zm-1.744-1.28H47.3v3.568H41.568Zm-.08,5.328v1.1h1.088v-1.1Zm-1.408-1.3h3.984v3.7H40.08Zm6,1.3v1.1h1.168v-1.1Zm-1.408-1.3h4.064v3.7H44.672ZM43.488-5.424h1.776V1.392H43.488Zm2.3,1.872a7.5,7.5,0,0,0,.928,1.184,10.019,10.019,0,0,0,1.224,1.1,7.675,7.675,0,0,0,1.336.824A5.278,5.278,0,0,0,48.616.2a7.123,7.123,0,0,0-.584.744,8.369,8.369,0,0,1-1.3-1.08A11.977,11.977,0,0,1,45.52-1.552a12.1,12.1,0,0,1-.96-1.536Zm-5.76-.72H48.9V-2.72H40.032Zm2.88.624,1.344.464a9.49,9.49,0,0,1-1.008,1.656A9.955,9.955,0,0,1,41.912-.072,8.309,8.309,0,0,1,40.4,1.008a6.706,6.706,0,0,0-.544-.72A5.67,5.67,0,0,0,39.2-.384a7.22,7.22,0,0,0,1.472-.832A8.78,8.78,0,0,0,41.96-2.36,6.839,6.839,0,0,0,42.912-3.648Zm-6.48-9.968,1.648.608q-.32.608-.656,1.264t-.656,1.256a11.59,11.59,0,0,1-.624,1.048L34.88-9.984q.272-.48.568-1.112t.56-1.3Q36.272-13.056,36.432-13.616Zm1.792,1.936,1.536.72q-.576.912-1.256,1.9t-1.352,1.9q-.672.912-1.28,1.584l-1.088-.624q.448-.528.92-1.208t.928-1.424q.456-.744.864-1.48T38.224-11.68ZM34.016-9.936l.944-1.312q.4.368.832.824t.792.9a4.126,4.126,0,0,1,.536.808L36.112-7.232a5.359,5.359,0,0,0-.52-.864q-.344-.48-.76-.968T34.016-9.936Zm3.552,2.064,1.3-.48q.288.544.552,1.168t.456,1.216a6.244,6.244,0,0,1,.256,1.056l-1.376.576A7.01,7.01,0,0,0,38.5-5.424q-.184-.608-.424-1.248T37.568-7.872ZM33.984-6.448q1.024-.064,2.464-.168t2.944-.216l.032,1.488q-1.36.16-2.712.3t-2.456.256ZM38.048-3.92l1.376-.448q.288.688.552,1.5a11.888,11.888,0,0,1,.376,1.384l-1.44.512a13.675,13.675,0,0,0-.36-1.432Q38.3-3.232,38.048-3.92ZM34.64-4.24l1.552.272a21.63,21.63,0,0,1-.376,2.256A10.342,10.342,0,0,1,35.232.176a3.355,3.355,0,0,0-.416-.24q-.256-.128-.528-.248T33.84-.5a7.355,7.355,0,0,0,.528-1.728A18.656,18.656,0,0,0,34.64-4.24Zm1.728-1.52h1.648V1.392H36.368Zm19.808-7.088q-.08.288-.176.72t-.192.9q-.1.472-.168.92t-.1.784a6.47,6.47,0,0,1,.688-.936,5.853,5.853,0,0,1,.9-.832,4.423,4.423,0,0,1,1.1-.6,3.607,3.607,0,0,1,1.272-.224,3.226,3.226,0,0,1,2.016.688,4.584,4.584,0,0,1,1.416,1.968,8.057,8.057,0,0,1,.52,3.04,8.143,8.143,0,0,1-.5,2.968A6,6,0,0,1,61.536-1.28,7.526,7.526,0,0,1,59.32.184a12.755,12.755,0,0,1-2.872.856L55.232-.816a15.933,15.933,0,0,0,2.44-.568,6.269,6.269,0,0,0,1.92-.984A4.114,4.114,0,0,0,60.84-3.976,5.932,5.932,0,0,0,61.28-6.4a7.368,7.368,0,0,0-.256-2.088,2.825,2.825,0,0,0-.744-1.3,1.657,1.657,0,0,0-1.16-.448,2.255,2.255,0,0,0-1.344.464,4.783,4.783,0,0,0-1.144,1.208,6.759,6.759,0,0,0-.8,1.608A5.856,5.856,0,0,0,55.5-5.3q-.016.336-.008.736a8.086,8.086,0,0,0,.088.96l-1.968.128q-.064-.464-.136-1.16a14.746,14.746,0,0,1-.072-1.512q0-.56.04-1.2t.1-1.3q.056-.664.144-1.336t.168-1.28q.064-.464.1-.912t.032-.768Zm20.48,1.888q-.16,1.216-.416,2.592a25.215,25.215,0,0,1-.688,2.784A14.3,14.3,0,0,1,74.464-2.8,6.1,6.1,0,0,1,73.1-1a2.457,2.457,0,0,1-1.624.632,2.532,2.532,0,0,1-1.624-.6,4.1,4.1,0,0,1-1.184-1.656,6.191,6.191,0,0,1-.44-2.4,6.267,6.267,0,0,1,.56-2.624,6.981,6.981,0,0,1,1.56-2.184,7.4,7.4,0,0,1,2.336-1.5,7.585,7.585,0,0,1,2.888-.544,7.12,7.12,0,0,1,2.68.48,6.032,6.032,0,0,1,2.04,1.328,5.764,5.764,0,0,1,1.3,1.984,6.613,6.613,0,0,1,.448,2.448,6.442,6.442,0,0,1-.688,3.008A5.687,5.687,0,0,1,79.3-.432,8.747,8.747,0,0,1,75.936.752l-1.2-1.9q.464-.048.816-.112t.672-.144a6.089,6.089,0,0,0,1.432-.552,4.469,4.469,0,0,0,1.16-.9,3.92,3.92,0,0,0,.776-1.256,4.335,4.335,0,0,0,.28-1.584,4.978,4.978,0,0,0-.288-1.728,3.89,3.89,0,0,0-.848-1.368,3.736,3.736,0,0,0-1.36-.9A5.04,5.04,0,0,0,75.536-10a5.275,5.275,0,0,0-2.256.456,5.281,5.281,0,0,0-1.648,1.176,5.163,5.163,0,0,0-1.016,1.552,4.147,4.147,0,0,0-.344,1.584A4,4,0,0,0,70.464-3.9a2.022,2.022,0,0,0,.472.8.864.864,0,0,0,.6.264.935.935,0,0,0,.664-.344,3.838,3.838,0,0,0,.648-1.048A14.178,14.178,0,0,0,73.488-6a21.854,21.854,0,0,0,.624-2.464,25.078,25.078,0,0,0,.368-2.56Zm9.36,2.8h3.728v1.744H86.016Zm-1.04-4.208h5.888v6.48H89.008v-4.7H84.976ZM84.96-8.16h1.872v4.912a.814.814,0,0,0,.112.528.886.886,0,0,0,.56.112h1.632a.518.518,0,0,0,.368-.12.886.886,0,0,0,.192-.48,8.98,8.98,0,0,0,.1-1.08A2.307,2.307,0,0,0,90.28-4q.312.144.632.256t.592.192a6.483,6.483,0,0,1-.352,1.672,1.569,1.569,0,0,1-.68.84A2.46,2.46,0,0,1,89.3-.8H87.232a3.657,3.657,0,0,1-1.376-.208,1.234,1.234,0,0,1-.7-.744,4.373,4.373,0,0,1-.2-1.48Zm7.9-2.624H99.52v1.808H92.864Zm.128-2.8,2.016.368a24.758,24.758,0,0,1-.8,2.856A19.438,19.438,0,0,1,93.12-7.8a11.776,11.776,0,0,1-1.328,2.056,3.369,3.369,0,0,0-.472-.408q-.312-.232-.648-.464t-.56-.36a8.5,8.5,0,0,0,1.264-1.792,14.2,14.2,0,0,0,.968-2.272A18.9,18.9,0,0,0,92.992-13.584Zm3.488,3.568,1.968.208a24.05,24.05,0,0,1-.864,3.992,13.367,13.367,0,0,1-1.44,3.152A10,10,0,0,1,93.992-.248a12.133,12.133,0,0,1-3,1.752,3.771,3.771,0,0,0-.3-.544q-.208-.32-.44-.64a5.854,5.854,0,0,0-.424-.528A9.6,9.6,0,0,0,93.352-2.28,8.785,8.785,0,0,0,95.44-5.488,18.531,18.531,0,0,0,96.48-10.016Zm-2.752.672a19.965,19.965,0,0,0,1.136,3.88,10.564,10.564,0,0,0,1.944,3.112A8.088,8.088,0,0,0,99.776-.3a4.323,4.323,0,0,0-.48.5q-.256.3-.48.624t-.368.576a9.092,9.092,0,0,1-3.16-2.4,12.49,12.49,0,0,1-2.04-3.528,27.3,27.3,0,0,1-1.28-4.5ZM104.56-.528h8.432V.944H104.56ZM103.7-3.072h10.272V1.392h-1.984V-1.616h-6.4V1.44H103.7ZM102.5-11.9H115.12v1.392H102.5Zm-.448,3.984H115.6v1.408H102.048ZM103.536-9.9H114.08v1.36H103.536ZM101.52-5.152H116.1V-3.68H101.52Zm6.24-6.08h1.984v6.688H107.76Zm-3.232-1.952,1.744-.432a4.955,4.955,0,0,1,.5.816,7.917,7.917,0,0,1,.36.816l-1.84.544a4.943,4.943,0,0,0-.3-.848A6.4,6.4,0,0,0,104.528-13.184Zm-.752,6.816,1.776-.368a5.283,5.283,0,0,1,.456.736,3.466,3.466,0,0,1,.3.736l-1.84.448a4.5,4.5,0,0,0-.272-.768A5.991,5.991,0,0,0,103.776-6.368Zm7.376-7.264,2.032.32q-.288.528-.56.96t-.512.768l-1.728-.336q.192-.384.424-.864A6.029,6.029,0,0,0,111.152-13.632Zm.832,6.912,1.968.288q-.256.448-.472.816l-.376.64L111.3-5.248q.176-.336.376-.744A6.757,6.757,0,0,0,111.984-6.72Z" transform="translate(1303 1195)" fill="#f57f6a"/>
          <g id="icon-path" transform="translate(1338 1112)" clip-path="url(#clip-path)">
            <g id="icon" transform="translate(0.36 0)">
              <path id="パス_319" data-name="パス 319" d="M84.977,108.129a6.3,6.3,0,0,0,2.884.692,6.376,6.376,0,0,0,4.662-2.018l4.285,2.282a6.594,6.594,0,0,0-.06.866,6.4,6.4,0,1,0,11.884-3.306l7.847-9.285-2.3-1.8-7.538,9.029A6.381,6.381,0,0,0,98.1,106.02l-4.014-2.131a6.336,6.336,0,0,0,.173-1.468,6.4,6.4,0,1,0-11.394,4l-7.282,9.406v1.039l1.74,1.37Zm5.52-5.708a2.618,2.618,0,0,1-1.642,2.432,2.468,2.468,0,0,1-.994.2,2.319,2.319,0,0,1-.512-.053,2.64,2.64,0,0,1-2-1.792,2.75,2.75,0,0,1-.12-.791,2.635,2.635,0,0,1,5.226-.474A2.425,2.425,0,0,1,90.5,102.421Zm15.287,7.531v.067a2.632,2.632,0,0,1-2.131,2.516,1.326,1.326,0,0,1-.294.038.992.992,0,0,1-.211.015,2.629,2.629,0,0,1-2.3-1.348,2.585,2.585,0,0,1-.339-1.288,2.615,2.615,0,0,1,1.047-2.094,2.567,2.567,0,0,1,1.589-.542,2.508,2.508,0,0,1,1.032.219A2.621,2.621,0,0,1,105.784,109.951Z" transform="translate(-68.504 -86.606)" fill="#f57f6a"/>
              <path id="パス_320" data-name="パス 320" d="M41.418,38.408H37.653V43.68H32.382V38.408H28.616V43.68H23.345V38.408H19.579V43.68H14.308V38.408H10.543V43.68H4.3V0H0V47.975H47.974v-4.3H41.418Z" transform="translate(0 -0.002)" fill="#fed3c4"/>
            </g>
          </g>
        </g>
      </g>
      <g id="Point-2" data-name="Point" transform="translate(279 214)">
        <g id="back-3" data-name="back">
          <g id="楕円形_14-2" data-name="楕円形 14" transform="translate(1261 1060)" fill="#fff" stroke="#f57f6a" stroke-width="2">
            <circle cx="100" cy="100" r="100" stroke="none"/>
            <circle cx="100" cy="100" r="99" fill="none"/>
          </g>
          <circle id="楕円形_19-2" data-name="楕円形 19" cx="90" cy="90" r="90" transform="translate(1271 1070)" fill="#f9f3ee"/>
        </g>
        <g id="text-2" data-name="text" transform="translate(0 4)">
          <path id="パス_409" data-name="パス 409" d="M7.76-13.136H9.568v1.952a8.693,8.693,0,0,1-.152,1.576,5.13,5.13,0,0,1-.584,1.592,4.221,4.221,0,0,1-1.264,1.36A4.679,4.679,0,0,0,7.16-7.08q-.264-.248-.552-.472a4.612,4.612,0,0,0-.48-.336,3.586,3.586,0,0,0,1.08-1.056A3.275,3.275,0,0,0,7.656-10.1a6.485,6.485,0,0,0,.1-1.12Zm3.584,0h1.808v3.6a1.17,1.17,0,0,0,.04.4.169.169,0,0,0,.168.08h.4a.186.186,0,0,0,.16-.1,1.219,1.219,0,0,0,.1-.448q.032-.344.048-1.048a2.471,2.471,0,0,0,.728.408,8.418,8.418,0,0,0,.824.28,6.626,6.626,0,0,1-.272,1.552,1.454,1.454,0,0,1-.52.776,1.531,1.531,0,0,1-.856.216h-.944a2.2,2.2,0,0,1-1.008-.192,1.074,1.074,0,0,1-.52-.648,4.12,4.12,0,0,1-.152-1.256ZM9.28-4.976a7.969,7.969,0,0,0,2.464,2.952,10.5,10.5,0,0,0,3.9,1.784A4.673,4.673,0,0,0,15.2.248q-.24.3-.448.608t-.352.568A10.863,10.863,0,0,1,10.312-.792a11.207,11.207,0,0,1-2.728-3.64Zm3.568-1.712h.368l.336-.08L14.8-6.3a11.438,11.438,0,0,1-1.128,2.856,9.818,9.818,0,0,1-1.688,2.184A9.89,9.89,0,0,1,9.792.336,14.577,14.577,0,0,1,7.184,1.424,4.122,4.122,0,0,0,6.912.856Q6.736.544,6.536.24A5.36,5.36,0,0,0,6.16-.272a11.426,11.426,0,0,0,2.32-.84,8.9,8.9,0,0,0,1.96-1.3,7.7,7.7,0,0,0,1.488-1.776,7.95,7.95,0,0,0,.92-2.208Zm-5.872,0H13.6v1.712H6.976Zm1.5-6.448h3.856v1.68H8.48ZM1.248-8.688h4.96v1.456H1.248Zm.064-4.4H6.176v1.44H1.312ZM1.248-6.5h4.96v1.44H1.248ZM.48-10.944H6.768v1.52H.48ZM2.128-4.288H6.176V.592H2.128V-.928h2.4v-1.84h-2.4Zm-.928,0H2.832v5.5H1.2Zm22.928-9.2H25.9V-9.6H24.128Zm4.144,0H30.08V-9.6H28.272ZM27.28-6.16h1.5V1.376h-1.5Zm-5.424-6.16H32.24v1.648H21.856Zm3.36,7.9H30.88v1.232H25.216Zm0,2.128H30.88V-1.04H25.216Zm-2.5-6.9h9.6v1.648h-9.6Zm-.784,0H23.68v3.536q0,.8-.064,1.728a18.554,18.554,0,0,1-.232,1.9A11.484,11.484,0,0,1,22.9-.152a6.868,6.868,0,0,1-.832,1.64,2.67,2.67,0,0,0-.392-.408q-.264-.232-.536-.448A4.121,4.121,0,0,0,20.672.3a5.9,5.9,0,0,0,.856-1.912,11.916,11.916,0,0,0,.336-2.1q.072-1.056.072-1.952Zm2.32,2.464h6.816v1.392H25.856V1.408h-1.6Zm6.064,0h1.616V-.192a3.13,3.13,0,0,1-.1.856.875.875,0,0,1-.432.52,2.176,2.176,0,0,1-.784.224,8.262,8.262,0,0,1-1.072.032A4.663,4.663,0,0,0,29.408.7a3.505,3.505,0,0,0-.272-.72q.336.016.608.016a3.124,3.124,0,0,0,.384-.016.17.17,0,0,0,.192-.192ZM20.16-13.568l1.776.528a28.378,28.378,0,0,1-1.08,2.816,26.082,26.082,0,0,1-1.384,2.7A16.058,16.058,0,0,1,17.9-5.3q-.064-.224-.224-.624t-.352-.8q-.192-.4-.336-.656a13.336,13.336,0,0,0,1.24-1.744,17.812,17.812,0,0,0,1.1-2.136A19.044,19.044,0,0,0,20.16-13.568Zm-1.28,4.4,1.776-1.776.048.032V1.424H18.88Zm22.16-3.824h1.808v1.664A7.282,7.282,0,0,1,42.656-9.7a5.1,5.1,0,0,1-.688,1.616,4.508,4.508,0,0,1-1.44,1.368,3.419,3.419,0,0,0-.352-.472q-.24-.28-.488-.536a3.469,3.469,0,0,0-.424-.384A3.733,3.733,0,0,0,40.44-9.136a2.958,2.958,0,0,0,.488-1.12,5.786,5.786,0,0,0,.112-1.1Zm.9,0h3.888v1.776H41.936Zm2.96,0h1.84V-9.5a1.17,1.17,0,0,0,.04.4q.04.08.184.08h.464a.191.191,0,0,0,.184-.112A1.544,1.544,0,0,0,47.7-9.6q.032-.352.048-1.056a2.736,2.736,0,0,0,.744.408,8.418,8.418,0,0,0,.824.28,6.791,6.791,0,0,1-.264,1.528,1.438,1.438,0,0,1-.52.776,1.592,1.592,0,0,1-.9.224H46.608a2.383,2.383,0,0,1-1.032-.184,1.035,1.035,0,0,1-.528-.632A3.973,3.973,0,0,1,44.9-9.488Zm-4.7,6.256h6.64v1.728h-6.64Zm6.048,0h.368L46.96-6.8l1.264.5A11.064,11.064,0,0,1,46.96-3.368a9.6,9.6,0,0,1-1.9,2.208A10.838,10.838,0,0,1,42.624.408a17.343,17.343,0,0,1-2.9,1.048,4.537,4.537,0,0,0-.264-.592Q39.3.544,39.1.224A3.228,3.228,0,0,0,38.72-.3a13.191,13.191,0,0,0,2.624-.784,9.458,9.458,0,0,0,2.192-1.28,8.041,8.041,0,0,0,1.672-1.784,7.309,7.309,0,0,0,1.032-2.3ZM42.3-5.12a8,8,0,0,0,2.68,3.064A11.285,11.285,0,0,0,49.344-.32,5.375,5.375,0,0,0,48.9.2q-.24.312-.456.632a6.546,6.546,0,0,0-.36.592A11.426,11.426,0,0,1,43.512-.76a10.777,10.777,0,0,1-2.936-3.832Zm-8.352-.256q.688-.128,1.576-.336t1.9-.456q1.008-.248,2.032-.488l.192,1.664q-1.328.416-2.68.848t-2.488.768Zm.24-5.248h5.52v1.776h-5.52ZM36.224-13.6h1.888V-.64A3.224,3.224,0,0,1,37.968.448a1.212,1.212,0,0,1-.56.624,2.8,2.8,0,0,1-.992.272,13.886,13.886,0,0,1-1.456.064,4.273,4.273,0,0,0-.192-.88,6.667,6.667,0,0,0-.336-.88q.464.016.9.024t.592.008a.393.393,0,0,0,.24-.08.312.312,0,0,0,.064-.224Zm15.44,1.552.848-1.312q.544.128,1.168.328t1.224.416q.6.216,1,.408l-.864,1.456q-.384-.192-.96-.44t-1.216-.472Q52.224-11.888,51.664-12.048Zm-.7,2.7q.88-.16,2.12-.448t2.5-.576l.176,1.5q-1.04.336-2.1.632L51.68-7.68Zm7.088-3.184h6.144v1.36H56.976Zm5.7,0h.272l.288-.064,1.264.336a14.631,14.631,0,0,1-.712,1.312,8.543,8.543,0,0,1-.792,1.12l-1.5-.464a7.3,7.3,0,0,0,.656-.952,7.265,7.265,0,0,0,.528-1.064Zm-4.048.576h1.712a6.61,6.61,0,0,1-.384,1.544,3.671,3.671,0,0,1-.792,1.232,4.569,4.569,0,0,1-1.392.936,10.265,10.265,0,0,1-2.232.672,3.977,3.977,0,0,0-.368-.712,3.707,3.707,0,0,0-.5-.648,10.6,10.6,0,0,0,1.888-.464,3.623,3.623,0,0,0,1.144-.632,2.365,2.365,0,0,0,.616-.84A4.494,4.494,0,0,0,59.7-11.952Zm1.616.4a3.1,3.1,0,0,0,.328.864,2.377,2.377,0,0,0,.712.76A4.682,4.682,0,0,0,63.7-9.32,13.025,13.025,0,0,0,65.92-8.9a4.163,4.163,0,0,0-.544.752,6.019,6.019,0,0,0-.416.832,9.74,9.74,0,0,1-2.44-.672,4.929,4.929,0,0,1-1.488-.976,3.963,3.963,0,0,1-.816-1.176,8.018,8.018,0,0,1-.44-1.256ZM58-13.6l1.7.288A12.881,12.881,0,0,1,58.608-11.5a8.215,8.215,0,0,1-1.536,1.608,3.576,3.576,0,0,0-.68-.512,5.709,5.709,0,0,0-.776-.4,6.8,6.8,0,0,0,1.472-1.352A7.019,7.019,0,0,0,58-13.6ZM54.992-4.88v.672h6.96V-4.88Zm0,1.76v.7h6.96v-.7Zm0-3.536v.688h6.96v-.688ZM53.136-7.792H63.888V-1.28H53.136ZM59.3-.432l1.6-.912q.864.3,1.752.648t1.7.688q.808.344,1.368.616l-2.24.864q-.448-.256-1.12-.592T60.9.2Q60.128-.144,59.3-.432ZM55.76-1.408l1.744.8A12.088,12.088,0,0,1,56,.208q-.864.4-1.776.728T52.5,1.488q-.176-.192-.424-.456T51.552.5a5.721,5.721,0,0,0-.48-.424q.848-.16,1.72-.384A16.622,16.622,0,0,0,54.44-.816,9.519,9.519,0,0,0,55.76-1.408ZM74.976-12.832q-.08.432-.256,1.12a13.746,13.746,0,0,1-.512,1.552q-.256.592-.584,1.224a11.277,11.277,0,0,1-.664,1.128,2.687,2.687,0,0,1,.528-.168,6.382,6.382,0,0,1,.664-.112,5.39,5.39,0,0,1,.616-.04,2.46,2.46,0,0,1,1.672.576A2.144,2.144,0,0,1,77.1-5.84q0,.32.008.784t.024.968q.016.5.032.984t.016.864h-1.92q.032-.272.04-.648t.016-.792q.008-.416.016-.808t.008-.712a1.232,1.232,0,0,0-.408-1.064,1.5,1.5,0,0,0-.9-.3,3.091,3.091,0,0,0-1.352.328,4.353,4.353,0,0,0-1.144.776q-.352.352-.712.784t-.776.976l-1.712-1.28a21.337,21.337,0,0,0,1.8-1.856,13.5,13.5,0,0,0,1.288-1.776,11.168,11.168,0,0,0,.864-1.76A9.684,9.684,0,0,0,72.68-11.7a8.14,8.14,0,0,0,.184-1.3ZM68.96-11.36q.608.1,1.408.144t1.408.048q1.056,0,2.312-.048t2.552-.168q1.3-.12,2.464-.312L79.088-9.84q-.848.112-1.832.2t-2,.144q-1.016.056-1.944.08t-1.648.024q-.32,0-.792-.008T69.9-9.432q-.5-.024-.944-.056ZM81.632-6.816q-.256.08-.6.2l-.688.24q-.344.12-.616.232-.768.3-1.816.736T75.728-4.4a9.773,9.773,0,0,0-1.216.752,3.209,3.209,0,0,0-.752.744,1.434,1.434,0,0,0-.256.824.976.976,0,0,0,.144.552.979.979,0,0,0,.432.344,2.453,2.453,0,0,0,.72.176,9.429,9.429,0,0,0,1.024.048q1.024,0,2.256-.12t2.288-.328L80.3.656q-.512.064-1.3.136T77.384.9q-.84.032-1.608.032a9.552,9.552,0,0,1-2.24-.24,3.151,3.151,0,0,1-1.56-.824,2.208,2.208,0,0,1-.568-1.608,3.027,3.027,0,0,1,.376-1.5,4.575,4.575,0,0,1,1-1.216,9.208,9.208,0,0,1,1.368-.984q.744-.44,1.464-.808.736-.384,1.328-.656T78.056-7.4q.52-.216,1-.44.464-.208.9-.408t.88-.424Zm8.3-5.872q-.064.5-.12,1.072t-.088,1.056q-.016.656-.056,1.592t-.064,1.96q-.024,1.024-.048,2.016t-.024,1.728a2.376,2.376,0,0,0,.3,1.272,1.644,1.644,0,0,0,.792.672,2.973,2.973,0,0,0,1.12.2,5.851,5.851,0,0,0,1.808-.264A5.991,5.991,0,0,0,95.04-2.1a6.446,6.446,0,0,0,1.208-1.04,10.289,10.289,0,0,0,.968-1.248l1.456,1.76a8.649,8.649,0,0,1-1.008,1.216,8.732,8.732,0,0,1-1.48,1.2A7.935,7.935,0,0,1,94.208.7a8.244,8.244,0,0,1-2.48.352,5.842,5.842,0,0,1-2.28-.408,3.185,3.185,0,0,1-1.5-1.264,4.119,4.119,0,0,1-.536-2.216q0-.656.016-1.5t.048-1.752q.032-.912.048-1.784t.032-1.576q.016-.7.016-1.12,0-.576-.048-1.128a7.344,7.344,0,0,0-.16-1.032Zm18.448-.08q-.1.32-.192.784t-.144.72q-.112.544-.28,1.328T107.4-8.272q-.2.88-.408,1.68-.208.848-.512,1.832t-.648,2q-.344,1.016-.7,1.936t-.688,1.64L102.224.064q.352-.608.752-1.48t.776-1.88q.376-1.008.7-2t.544-1.84q.16-.56.3-1.152t.256-1.152q.112-.56.2-1.048t.136-.856q.048-.448.064-.9a4.93,4.93,0,0,0-.016-.72Zm-4.08,2.384q.976,0,2.032-.1t2.128-.272q1.072-.176,2.128-.416v2q-.992.224-2.112.384t-2.208.248q-1.088.088-2,.088-.576,0-1.04-.024t-.9-.04l-.048-2q.624.064,1.072.1T104.3-10.384Zm5.024,2.448Q110-8,110.816-8.048T112.4-8.1q.688,0,1.4.032t1.416.112l-.048,1.92q-.592-.08-1.3-.136t-1.448-.056q-.816,0-1.576.04t-1.512.136Zm.864,4.032a6.976,6.976,0,0,0-.16.7,3.668,3.668,0,0,0-.064.632,1.059,1.059,0,0,0,.112.48,1.061,1.061,0,0,0,.352.392,1.891,1.891,0,0,0,.664.264,4.93,4.93,0,0,0,1.064.1,15.434,15.434,0,0,0,1.64-.088q.824-.088,1.688-.248l-.08,2.048q-.672.08-1.488.152t-1.776.072a5.859,5.859,0,0,1-3.08-.664A2.1,2.1,0,0,1,108-1.952a6.525,6.525,0,0,1,.1-1.1q.1-.56.192-1.04ZM121.76-11.44a6.071,6.071,0,0,0-.1.656q-.04.368-.064.72t-.024.576q-.016.528-.008,1.088t.032,1.144q.024.584.072,1.16a15.386,15.386,0,0,0,.32,2.032,4.094,4.094,0,0,0,.544,1.368,1,1,0,0,0,.848.488.732.732,0,0,0,.536-.3,3.145,3.145,0,0,0,.48-.792,9.4,9.4,0,0,0,.384-1.032q.168-.544.3-1.024l1.6,1.952a12.641,12.641,0,0,1-1.048,2.216,3.759,3.759,0,0,1-1.08,1.184,2.206,2.206,0,0,1-1.216.36,2.707,2.707,0,0,1-1.64-.576,4.376,4.376,0,0,1-1.32-1.864A12.305,12.305,0,0,1,119.6-5.52q-.08-.736-.12-1.552t-.048-1.552q-.008-.736-.008-1.216,0-.336-.032-.8a8.175,8.175,0,0,0-.1-.832Zm8,.368a7.951,7.951,0,0,1,.864,1.328,16.291,16.291,0,0,1,.768,1.68q.352.9.624,1.832t.44,1.824a13.545,13.545,0,0,1,.216,1.624l-2.112.816q-.08-.976-.288-2.128a20.919,20.919,0,0,0-.56-2.32,16.182,16.182,0,0,0-.84-2.208,7.648,7.648,0,0,0-1.144-1.792Z" transform="translate(1295 1195)" fill="#f57f6a"/>
          <g id="icon-path-2" data-name="icon-path" transform="translate(1338 1112)" clip-path="url(#clip-path)">
            <g id="icon-2" data-name="icon" transform="translate(0.926 0.027)">
              <path id="パス_288" data-name="パス 288" d="M206.552,190.281A14.349,14.349,0,1,0,220.9,204.63,14.35,14.35,0,0,0,206.552,190.281Zm5.7,13.173h-3.929l-.423.658v1.573h4.352v2.232H207.9v3.371h-2.7v-3.371h-4.355v-2.232H205.2v-1.57l-.426-.66h-3.929v-1.908h2.7l-2.3-3.572h2.291l3.007,4.679,3.007-4.679h2.291l-2.3,3.573h2.7Z" transform="translate(-174.059 -171.005)" fill="#f57f6a"/>
              <path id="パス_289" data-name="パス 289" d="M24.518,7.126c0,2.884-5.487,5.219-12.259,5.219S0,10.01,0,7.126s5.487-5.22,12.259-5.22S24.518,4.242,24.518,7.126Z" transform="translate(0 -1.906)" fill="#fed3c4"/>
              <path id="パス_290" data-name="パス 290" d="M0,126.968c0,2.882,5.487,5.219,12.259,5.219s12.259-2.336,12.259-5.219v-1.3a1.187,1.187,0,0,0-1.652-1.093s-3.835,2.37-10.607,2.37-10.6-2.37-10.6-2.37A1.189,1.189,0,0,0,0,125.67Z" transform="translate(0 -112.911)" fill="#fed3c4"/>
              <path id="パス_291" data-name="パス 291" d="M16.234,223.368a19.183,19.183,0,0,0-2.2,5.466c-.58.038-1.165.055-1.767.055-6.766,0-12.254-2.338-12.254-5.225v-1.291a1.186,1.186,0,0,1,1.651-1.094s3.838,2.369,10.6,2.369A27.6,27.6,0,0,0,16.234,223.368Z" transform="translate(-0.014 -200.485)" fill="#fed3c4"/>
              <path id="パス_292" data-name="パス 292" d="M14.053,325.507c-.578.04-1.182.055-1.783.055-6.766,0-12.254-2.338-12.254-5.216v-1.3a1.186,1.186,0,0,1,1.651-1.1s3.838,2.37,10.6,2.37c.431,0,.845-.007,1.251-.024-.015.2-.015.407-.015.611A19.42,19.42,0,0,0,14.053,325.507Z" transform="translate(-0.014 -288.032)" fill="#fed3c4"/>
              <path id="パス_293" data-name="パス 293" d="M18.456,421.525a25.46,25.46,0,0,1-6.186.72c-6.766,0-12.254-2.339-12.254-5.217v-1.3a1.188,1.188,0,0,1,1.651-1.1S5.5,417,12.269,417a26.818,26.818,0,0,0,3.1-.173A19.635,19.635,0,0,0,18.456,421.525Z" transform="translate(-0.014 -375.587)" fill="#fed3c4"/>
            </g>
          </g>
        </g>
      </g>
      <g id="Point-3" data-name="Point" transform="translate(-269 214)">
        <g id="back-4" data-name="back">
          <g id="楕円形_14-3" data-name="楕円形 14" transform="translate(1261 1060)" fill="#fff" stroke="#f57f6a" stroke-width="2">
            <circle cx="100" cy="100" r="100" stroke="none"/>
            <circle cx="100" cy="100" r="99" fill="none"/>
          </g>
          <circle id="楕円形_19-3" data-name="楕円形 19" cx="90" cy="90" r="90" transform="translate(1271 1070)" fill="#f9f3ee"/>
        </g>
        <g id="text-3" data-name="text" transform="translate(0 4)">
          <path id="パス_412" data-name="パス 412" d="M1.136-10.3H14.928v3.728H12.992V-8.528h-10v1.952H1.136Zm.96,4.24H12.368v1.792H2.1Zm9.6,0h1.968l-.008.144q-.008.144-.016.328t-.008.312q-.1,1.888-.216,3.1a12.244,12.244,0,0,1-.3,1.9,2.622,2.622,0,0,1-.44.984,1.724,1.724,0,0,1-.68.5,3.81,3.81,0,0,1-.84.2,10.071,10.071,0,0,1-1.1.048q-.688,0-1.44-.016a3.407,3.407,0,0,0-.2-.968,3.612,3.612,0,0,0-.456-.92q.72.048,1.384.064t.968.016A1.962,1.962,0,0,0,10.7-.4a.726.726,0,0,0,.3-.144,1.511,1.511,0,0,0,.32-.752,13.81,13.81,0,0,0,.224-1.672q.1-1.1.16-2.808ZM6.448-8.16h2.1q-.064,1.5-.2,2.784A10.149,10.149,0,0,1,7.832-3.04a6.055,6.055,0,0,1-1.1,1.9A6.581,6.581,0,0,1,4.816.36a12.909,12.909,0,0,1-3.008,1.1,3.9,3.9,0,0,0-.28-.6A6.81,6.81,0,0,0,1.12.216,5.528,5.528,0,0,0,.688-.32a11.437,11.437,0,0,0,2.68-.848A5.5,5.5,0,0,0,5.032-2.352a4.145,4.145,0,0,0,.9-1.528,9,9,0,0,0,.384-1.928Q6.416-6.88,6.448-8.16ZM12.192-13.5l2.144.64q-.576.848-1.184,1.648T12.032-9.84L10.4-10.448q.32-.416.656-.944t.632-1.088Q11.984-13.04,12.192-13.5ZM2-12.576l1.664-.768q.32.368.648.808a10.6,10.6,0,0,1,.592.88,5.473,5.473,0,0,1,.408.808L3.536-10a4.114,4.114,0,0,0-.36-.808q-.248-.44-.544-.9A8.184,8.184,0,0,0,2-12.576Zm4.192-.432L7.9-13.584a13.562,13.562,0,0,1,.768,1.336,5.8,5.8,0,0,1,.5,1.288l-1.824.624a6.265,6.265,0,0,0-.256-.816q-.176-.464-.408-.952A9.539,9.539,0,0,0,6.192-13.008Zm17.232.7H25.04V-7.92H23.424Zm-2.24,1.616h6.16V-9.3h-6.16Zm6.1.752h3.872v1.648H27.28ZM21.328-3.072h5.888V-1.68H21.328Zm5.088-10.1.944,1.36q-.832.176-1.832.312t-2.024.224q-1.024.088-1.968.136a4.843,4.843,0,0,0-.168-.664,5.372,5.372,0,0,0-.248-.648q.912-.08,1.88-.184t1.864-.248Q25.76-13.024,26.416-13.168ZM20.976-.528q.8-.048,1.816-.128t2.16-.176l2.28-.192L27.248.368Q25.664.56,24.072.736t-2.84.3Zm9.6-9.408h1.6v.768q-.064,2.512-.1,4.256T31.96-2.048q-.072,1.12-.168,1.736a2.074,2.074,0,0,1-.272.856,1.561,1.561,0,0,1-.464.52,1.641,1.641,0,0,1-.576.216,6.179,6.179,0,0,1-.712.064q-.408.016-.872,0A4.328,4.328,0,0,0,28.76.5a3.218,3.218,0,0,0-.312-.816q.368.032.672.048t.5.016a.507.507,0,0,0,.256-.064.61.61,0,0,0,.208-.224,2.507,2.507,0,0,0,.176-.712q.08-.536.136-1.568t.1-2.68q.04-1.648.088-4.048ZM22.592-5.7v.72H25.9V-5.7Zm0-1.76v.72H25.9v-.72ZM21.36-8.608h5.824v4.784H21.36Zm2.224.4h1.28v3.952h.16V-.32h-1.6V-4.256h.16Zm4.528-5.328h1.616v5.552q0,1.152-.088,2.416A20.522,20.522,0,0,1,29.3-3.04,12.226,12.226,0,0,1,28.56-.608,7.76,7.76,0,0,1,27.232,1.5a3.266,3.266,0,0,0-.384-.352q-.24-.192-.5-.376a4.324,4.324,0,0,0-.464-.3,7.174,7.174,0,0,0,1.2-1.92,10.726,10.726,0,0,0,.664-2.192A18.389,18.389,0,0,0,28.04-5.88q.072-1.112.072-2.088Zm-8.288,0,1.712.48a29.328,29.328,0,0,1-.968,2.784A26.789,26.789,0,0,1,19.32-7.6a15.543,15.543,0,0,1-1.432,2.224,6.433,6.433,0,0,0-.216-.632q-.152-.392-.328-.8a5.647,5.647,0,0,0-.32-.648,14.032,14.032,0,0,0,1.1-1.744,19.336,19.336,0,0,0,.968-2.088A18.385,18.385,0,0,0,19.824-13.536Zm-1.056,4.4,1.7-1.7v12.3h-1.7Zm15.424-3.328h5.152v1.7H34.192Zm.128,4.608h4.8v1.7h-4.8Zm4.848-1.088h9.9v1.52h-9.9Zm-5.216,6.4q.7-.144,1.608-.36t1.912-.48q1.008-.264,1.984-.5l.224,1.7q-1.36.4-2.768.776t-2.56.68Zm7.872-2.928v1.024h4.592V-5.472Zm-1.68-1.36h8.048v3.744H40.144Zm5.7-4.96v1.024h1.024v-1.024Zm-2.224,0v1.024h1.008v-1.024Zm-2.208,0v1.024h.976v-1.024Zm-1.52-1.3h8.576v3.616H39.888ZM44.7-3.824a6.387,6.387,0,0,0,1.04,1.592,7.417,7.417,0,0,0,1.512,1.3,7.57,7.57,0,0,0,1.864.88,5.491,5.491,0,0,0-.64.7,8.845,8.845,0,0,0-.56.784A7.644,7.644,0,0,1,45.168-.5a9.787,9.787,0,0,1-1.84-2.928Zm2.832.688,1.328.976q-.48.368-1,.7t-.936.576l-1.1-.864q.272-.176.592-.424t.616-.5Q47.328-2.928,47.536-3.136ZM35.968-11.728H37.68V-2.4l-1.712.272Zm7.84,7.648,1.344.608a11.507,11.507,0,0,1-1.68,1.656,16.145,16.145,0,0,1-2.08,1.432A14.035,14.035,0,0,1,39.2.656a5.154,5.154,0,0,0-.512-.7q-.336-.4-.592-.656a16.371,16.371,0,0,0,2.136-.856,14.758,14.758,0,0,0,2.024-1.176A8.635,8.635,0,0,0,43.808-4.08Zm-1.6,2.256,1.808-1.2V1.44H42.208Zm14.16-10.752h9.184v1.488H56.368Zm-.352,2.7h9.84V-8.3h-9.84Zm3.856-3.68H61.76v1.968H59.872Zm2.416,2.176,1.872.352q-.24.432-.432.808t-.352.648l-1.664-.32q.16-.336.32-.752T62.288-11.376Zm-4.544.4,1.664-.352a3.933,3.933,0,0,1,.344.7,4.821,4.821,0,0,1,.216.7l-1.744.4a3.2,3.2,0,0,0-.176-.712A7.675,7.675,0,0,0,57.744-10.976Zm.976,6.384v.816h4.512v-.816Zm0-1.9v.784h4.512V-6.5ZM56.912-7.7H65.1v5.1H56.912Zm4.4,4.736h1.824V-.72a.756.756,0,0,0,.056.368q.056.08.264.08h.736a.232.232,0,0,0,.208-.1,1.034,1.034,0,0,0,.1-.384,8.9,8.9,0,0,0,.056-.9,3.053,3.053,0,0,0,.456.264,4.9,4.9,0,0,0,.592.24q.312.1.552.168a5.387,5.387,0,0,1-.28,1.44,1.28,1.28,0,0,1-.56.7,1.946,1.946,0,0,1-.92.192H63.152A2.643,2.643,0,0,1,62,1.16a1.051,1.051,0,0,1-.544-.648A4.111,4.111,0,0,1,61.312-.7Zm-2.928-.08h1.872a7.392,7.392,0,0,1-.36,1.5,3.973,3.973,0,0,1-.728,1.248A4.6,4.6,0,0,1,57.872.72a8.935,8.935,0,0,1-2.064.768,2.967,2.967,0,0,0-.264-.552q-.184-.312-.384-.6a2.781,2.781,0,0,0-.392-.464A9.217,9.217,0,0,0,56.5-.616a3.391,3.391,0,0,0,1.048-.64,2.475,2.475,0,0,0,.568-.8A3.854,3.854,0,0,0,58.384-3.04ZM51.12-9.776h4.816v1.792H51.12ZM52.7-13.36H54.5V-2.736H52.7ZM50.752-2.9q.672-.24,1.52-.576t1.808-.736q.96-.4,1.9-.8L56.4-3.3q-1.264.592-2.576,1.2L51.408-.976Zm25.9-8.064q-.16,1.216-.416,2.592a25.215,25.215,0,0,1-.688,2.784A14.3,14.3,0,0,1,74.464-2.8,6.1,6.1,0,0,1,73.1-1a2.457,2.457,0,0,1-1.624.632,2.532,2.532,0,0,1-1.624-.6,4.1,4.1,0,0,1-1.184-1.656,6.191,6.191,0,0,1-.44-2.4,6.267,6.267,0,0,1,.56-2.624,6.981,6.981,0,0,1,1.56-2.184,7.4,7.4,0,0,1,2.336-1.5,7.585,7.585,0,0,1,2.888-.544,7.12,7.12,0,0,1,2.68.48,6.032,6.032,0,0,1,2.04,1.328,5.764,5.764,0,0,1,1.3,1.984,6.613,6.613,0,0,1,.448,2.448,6.442,6.442,0,0,1-.688,3.008A5.687,5.687,0,0,1,79.3-.432,8.747,8.747,0,0,1,75.936.752l-1.2-1.9q.464-.048.816-.112t.672-.144a6.089,6.089,0,0,0,1.432-.552,4.469,4.469,0,0,0,1.16-.9,3.92,3.92,0,0,0,.776-1.256,4.335,4.335,0,0,0,.28-1.584,4.978,4.978,0,0,0-.288-1.728,3.89,3.89,0,0,0-.848-1.368,3.736,3.736,0,0,0-1.36-.9A5.04,5.04,0,0,0,75.536-10a5.275,5.275,0,0,0-2.256.456,5.281,5.281,0,0,0-1.648,1.176,5.163,5.163,0,0,0-1.016,1.552,4.147,4.147,0,0,0-.344,1.584A4,4,0,0,0,70.464-3.9a2.022,2.022,0,0,0,.472.8.864.864,0,0,0,.6.264.935.935,0,0,0,.664-.344,3.838,3.838,0,0,0,.648-1.048A14.178,14.178,0,0,0,73.488-6a21.854,21.854,0,0,0,.624-2.464,25.078,25.078,0,0,0,.368-2.56Zm9.008,6.128H98.336v1.52H85.664Zm-.832-7.952H92.24v1.3H84.832ZM92.064-2.56h4.992v1.392H92.064ZM84.7-.352h14.64V1.2H84.7Zm6.32-3.856h1.888V.384H91.024ZM87.712-13.6h1.664v8.448H87.712ZM87.056-2.784H88.9V.528h-1.84Zm-.368-7.04v.864h3.76v-.864ZM85.2-10.944h6.816v3.1H85.2Zm4.24,2.832q.192.08.552.264t.776.4l.76.392q.344.176.5.272l-.928,1.2q-.224-.192-.552-.432t-.7-.5Q89.472-6.768,89.12-7t-.592-.376Zm4.544-5.472,1.712.4a12.691,12.691,0,0,1-1.136,2.656,8.5,8.5,0,0,1-1.632,2.1q-.128-.176-.352-.432t-.464-.5a3.776,3.776,0,0,0-.432-.392,6.125,6.125,0,0,0,1.4-1.68A9.276,9.276,0,0,0,93.984-13.584Zm.032,1.632h5.248v1.488H93.28Zm2.576.688,1.76.16a7.816,7.816,0,0,1-1.936,3.856A9.253,9.253,0,0,1,92.784-5.04a3.4,3.4,0,0,0-.28-.448q-.184-.256-.4-.52a2.925,2.925,0,0,0-.392-.408,7.511,7.511,0,0,0,3.272-1.728A5.7,5.7,0,0,0,96.592-11.264Zm-2.272.176a7.864,7.864,0,0,0,1.024,1.824,7.3,7.3,0,0,0,1.712,1.64,7.536,7.536,0,0,0,2.48,1.1,5.269,5.269,0,0,0-.568.7,6.606,6.606,0,0,0-.488.8A7.882,7.882,0,0,1,95.944-6.4a9.26,9.26,0,0,1-1.776-1.928,9.31,9.31,0,0,1-1.08-2.072ZM87.552-8.336l1.184.512A9.778,9.778,0,0,1,87.848-6.8a10.184,10.184,0,0,1-1.112.976,7.947,7.947,0,0,1-1.152.736,5.009,5.009,0,0,0-.5-.624,5.466,5.466,0,0,0-.576-.56,9.347,9.347,0,0,0,1.112-.552,9.331,9.331,0,0,0,1.08-.728A6.181,6.181,0,0,0,87.552-8.336Zm21.456-.112.016,1.376,4.848.016-.016-1.376Zm0-2.848.016,1.344,4.848.016-.016-1.36ZM107.3-12.912h8.4l-.016,7.456-8.4.016Zm-.128,8.848h8.688v1.712l-8.672.016ZM106.048-.8,116.4-.816,116.384.912l-10.32.016Zm-4.672-11.872h5.312l-.016,1.776h-5.3Zm.16,4.608h4.88L106.4-6.3h-4.88Zm-.352,6.08q.7-.192,1.576-.44t1.848-.56l1.92-.616.336,1.824q-1.344.448-2.72.912t-2.528.832Zm1.968-9.984h1.824v9.824l-1.84.3Zm7.52-.256h1.616v6.016h.176L112.448.016,110.5,0V-6.208h.176Z" transform="translate(1303 1195)" fill="#f57f6a"/>
          <g id="icon-3" data-name="icon" transform="translate(866 -158)" clip-path="url(#clip-path-3)">
            <g id="icon-4" data-name="icon" transform="translate(472 1270)">
              <path id="パス_317" data-name="パス 317" d="M39.447,229.219h0l-.014,0a16.41,16.41,0,0,1-1.206,2.84c-.042.078-.087.155-.13.233-.184.328-.381.647-.586.959-.092.139-.183.28-.28.416-.159.228-.329.447-.5.666-.141.18-.277.363-.425.536-.1.122-.214.235-.32.353a16.869,16.869,0,0,1-2.372,2.176c-.092.069-.182.141-.275.209-.249.18-.507.349-.765.516-.145.093-.291.186-.439.274q-.344.207-.7.4c-.211.113-.426.22-.642.324-.188.091-.376.182-.567.266q-.537.234-1.09.43c-.061.022-.121.048-.182.069a16.494,16.494,0,0,1-20.838-9.95l1.616-.1.8-.042,0-.007h.017l-3.888-5.871-1.935-2.935,0,.008-.009-.015-3.133,6.287L0,230.411H.009L0,230.426l2.654-.163a21.94,21.94,0,0,0,2.813,6.069,21.37,21.37,0,0,0,6.773,6.521A21.851,21.851,0,0,0,44.378,231.11c.032-.1.073-.187.1-.283h0l0-.014Z" transform="translate(115.27 -181.331) rotate(30)" fill="#fed3c4"/>
              <path id="パス_318" data-name="パス 318" d="M35.494,36.2l.01,0h0l.014,0a16.424,16.424,0,0,1,1.206-2.841c.042-.077.086-.153.129-.229.185-.329.383-.649.588-.962.092-.139.182-.278.278-.414.16-.229.33-.449.5-.669.14-.179.276-.361.423-.534.1-.122.215-.236.322-.355a16.844,16.844,0,0,1,2.37-2.175c.092-.069.182-.141.275-.209.25-.18.507-.35.767-.516.145-.093.29-.185.437-.273q.345-.207.7-.4c.211-.113.425-.219.641-.323.188-.091.376-.183.567-.267q.536-.233,1.087-.429c.062-.022.122-.048.185-.07a16.489,16.489,0,0,1,20.837,9.95l-1.612.1-.809.042.005.007H64.4l5.836,8.812,3.143-6.307,1.573-3.139h-.008l.007-.015-2.653.163a21.958,21.958,0,0,0-2.819-6.078A21.372,21.372,0,0,0,62.7,22.563,21.853,21.853,0,0,0,31.084,32.915c-.012.029-.023.057-.034.086-.209.515-.4,1.039-.574,1.576l-.005.015h0l0,.014Z" transform="translate(-0.169 -36.687) rotate(30)" fill="#f57f6a"/>
            </g>
          </g>
        </g>
      </g>
      <g id="Point-4" data-name="Point" transform="translate(-186 496)">
        <g id="back-5" data-name="back">
          <g id="楕円形_14-4" data-name="楕円形 14" transform="translate(1261 1060)" fill="#fff" stroke="#f57f6a" stroke-width="2">
            <circle cx="100" cy="100" r="100" stroke="none"/>
            <circle cx="100" cy="100" r="99" fill="none"/>
          </g>
          <circle id="楕円形_19-4" data-name="楕円形 19" cx="90" cy="90" r="90" transform="translate(1271 1070)" fill="#f9f3ee"/>
        </g>
        <g id="text-4" data-name="text" transform="translate(0 4)">
          <path id="パス_411" data-name="パス 411" d="M6.752-12.848H13.6V-11.2H6.752Zm.592,8.592h7.472v1.68H7.344ZM6.384-.688h9.1V.992h-9.1Zm6.672-12.16h.352l.352-.08,1.28.56A9.991,9.991,0,0,1,13.28-9.1a10.413,10.413,0,0,1-2.656,2.3A14.925,14.925,0,0,1,7.3-5.328a6.194,6.194,0,0,0-.472-.824,6.793,6.793,0,0,0-.584-.776A12.16,12.16,0,0,0,9.224-8.12a9.29,9.29,0,0,0,2.368-1.9,7.068,7.068,0,0,0,1.464-2.544Zm-3.824,1.44a7.544,7.544,0,0,0,2.52,2.792,11.087,11.087,0,0,0,3.96,1.656,5.657,5.657,0,0,0-.632.736,7.219,7.219,0,0,0-.536.816A11.566,11.566,0,0,1,10.376-7.44a10.287,10.287,0,0,1-2.808-3.424Zm.832,5.232h1.888V.384H10.064ZM2.88-13.584l1.664.624q-.32.608-.672,1.264t-.688,1.248q-.336.592-.64,1.024l-1.28-.544q.288-.5.592-1.12t.576-1.28Q2.7-13.024,2.88-13.584Zm1.84,1.9,1.568.7q-.576.912-1.264,1.912T3.648-7.144q-.688.92-1.3,1.608L1.232-6.16Q1.68-6.7,2.16-7.384t.952-1.424Q3.584-9.552,4-10.3T4.72-11.68ZM.416-9.792,1.344-11.1q.416.368.856.808t.816.88a4.806,4.806,0,0,1,.568.792L2.608-7.136a5.249,5.249,0,0,0-.552-.848q-.36-.464-.792-.944T.416-9.792Zm3.84,1.92L5.52-8.4q.3.544.6,1.16t.512,1.2a6.017,6.017,0,0,1,.3,1.048l-1.36.608a7.4,7.4,0,0,0-.28-1.064q-.2-.6-.472-1.24T4.256-7.872ZM.4-6.544q1.1-.032,2.64-.1l3.12-.128-.016,1.52q-1.488.112-2.952.208T.56-4.864ZM4.592-3.888,5.936-4.32q.3.688.584,1.5t.424,1.416L5.52-.9a11.708,11.708,0,0,0-.384-1.448Q4.864-3.184,4.592-3.888ZM1.1-4.192,2.688-3.9A20.2,20.2,0,0,1,2.3-1.632,10.732,10.732,0,0,1,1.712.256,3.512,3.512,0,0,0,1.28.008Q1.008-.128.728-.256A4.116,4.116,0,0,0,.24-.448,7.317,7.317,0,0,0,.8-2.168,18.335,18.335,0,0,0,1.1-4.192ZM2.9-5.7h1.68V1.44H2.9ZM22.416-7.28v1.136h4.768V-7.28ZM20.64-8.672h8.416v3.936H20.64Zm3.024,3.344L25.84-5.2q-.24.64-.512,1.232t-.5,1.008l-1.68-.224q.16-.5.3-1.088A10.736,10.736,0,0,0,23.664-5.328ZM19.3-3.76H30.56V1.456h-1.9V-2.112h-7.52V1.472H19.3ZM20.336-.7h9.136V.944H20.336ZM18.064-11.088H31.712V-7.68h-1.84V-9.472H19.824V-7.68h-1.76ZM28.8-13.52l2.064.624q-.512.688-1.024,1.344a14.12,14.12,0,0,1-.944,1.1l-1.568-.576q.256-.352.536-.784t.528-.88A8.43,8.43,0,0,0,28.8-13.52Zm-9.84.848,1.648-.7a12.256,12.256,0,0,1,.824,1.032,6.452,6.452,0,0,1,.616,1.016l-1.76.768a6.651,6.651,0,0,0-.56-1.032A12.619,12.619,0,0,0,18.96-12.672Zm4-.4,1.68-.576q.352.48.712,1.088a5.393,5.393,0,0,1,.5,1.056l-1.76.64a7.7,7.7,0,0,0-.472-1.064A13.017,13.017,0,0,0,22.96-13.072ZM35.616-8.16h3.728v1.744H35.616Zm-1.04-4.208h5.888v6.48H38.608v-4.7H34.576ZM34.56-8.16h1.872v4.912a.814.814,0,0,0,.112.528.886.886,0,0,0,.56.112h1.632a.518.518,0,0,0,.368-.12.886.886,0,0,0,.192-.48,8.981,8.981,0,0,0,.1-1.08A2.307,2.307,0,0,0,39.88-4q.312.144.632.256t.592.192a6.483,6.483,0,0,1-.352,1.672,1.569,1.569,0,0,1-.68.84A2.46,2.46,0,0,1,38.9-.8H36.832a3.657,3.657,0,0,1-1.376-.208,1.234,1.234,0,0,1-.7-.744,4.373,4.373,0,0,1-.2-1.48Zm7.9-2.624H49.12v1.808H42.464Zm.128-2.8,2.016.368a24.758,24.758,0,0,1-.8,2.856A19.438,19.438,0,0,1,42.72-7.8a11.776,11.776,0,0,1-1.328,2.056,3.369,3.369,0,0,0-.472-.408q-.312-.232-.648-.464t-.56-.36a8.5,8.5,0,0,0,1.264-1.792,14.2,14.2,0,0,0,.968-2.272A18.9,18.9,0,0,0,42.592-13.584Zm3.488,3.568,1.968.208a24.05,24.05,0,0,1-.864,3.992,13.368,13.368,0,0,1-1.44,3.152A10,10,0,0,1,43.592-.248a12.133,12.133,0,0,1-3,1.752,3.771,3.771,0,0,0-.3-.544q-.208-.32-.44-.64a5.853,5.853,0,0,0-.424-.528A9.6,9.6,0,0,0,42.952-2.28,8.785,8.785,0,0,0,45.04-5.488,18.531,18.531,0,0,0,46.08-10.016Zm-2.752.672a19.965,19.965,0,0,0,1.136,3.88,10.564,10.564,0,0,0,1.944,3.112A8.088,8.088,0,0,0,49.376-.3a4.322,4.322,0,0,0-.48.5q-.256.3-.48.624t-.368.576a9.092,9.092,0,0,1-3.16-2.4,12.49,12.49,0,0,1-2.04-3.528,27.3,27.3,0,0,1-1.28-4.5ZM54.16-.528h8.432V.944H54.16ZM53.3-3.072H63.568V1.392H61.584V-1.616h-6.4V1.44H53.3ZM52.1-11.9H64.72v1.392H52.1ZM51.648-7.92H65.2v1.408H51.648ZM53.136-9.9H63.68v1.36H53.136ZM51.12-5.152H65.7V-3.68H51.12Zm6.24-6.08h1.984v6.688H57.36Zm-3.232-1.952,1.744-.432a4.956,4.956,0,0,1,.5.816,7.918,7.918,0,0,1,.36.816l-1.84.544a4.943,4.943,0,0,0-.3-.848A6.4,6.4,0,0,0,54.128-13.184Zm-.752,6.816,1.776-.368A5.283,5.283,0,0,1,55.608-6a3.467,3.467,0,0,1,.3.736l-1.84.448a4.5,4.5,0,0,0-.272-.768A5.991,5.991,0,0,0,53.376-6.368Zm7.376-7.264,2.032.32q-.288.528-.56.96t-.512.768l-1.728-.336q.192-.384.424-.864A6.028,6.028,0,0,0,60.752-13.632Zm.832,6.912,1.968.288q-.256.448-.472.816l-.376.64L60.9-5.248q.176-.336.376-.744A6.755,6.755,0,0,0,61.584-6.72Zm15.072-4.24q-.16,1.216-.416,2.592a25.215,25.215,0,0,1-.688,2.784A14.3,14.3,0,0,1,74.464-2.8,6.1,6.1,0,0,1,73.1-1a2.457,2.457,0,0,1-1.624.632,2.532,2.532,0,0,1-1.624-.6,4.1,4.1,0,0,1-1.184-1.656,6.191,6.191,0,0,1-.44-2.4,6.267,6.267,0,0,1,.56-2.624,6.981,6.981,0,0,1,1.56-2.184,7.4,7.4,0,0,1,2.336-1.5,7.585,7.585,0,0,1,2.888-.544,7.12,7.12,0,0,1,2.68.48,6.032,6.032,0,0,1,2.04,1.328,5.764,5.764,0,0,1,1.3,1.984,6.613,6.613,0,0,1,.448,2.448,6.442,6.442,0,0,1-.688,3.008A5.687,5.687,0,0,1,79.3-.432,8.747,8.747,0,0,1,75.936.752l-1.2-1.9q.464-.048.816-.112t.672-.144a6.089,6.089,0,0,0,1.432-.552,4.469,4.469,0,0,0,1.16-.9,3.92,3.92,0,0,0,.776-1.256,4.335,4.335,0,0,0,.28-1.584,4.978,4.978,0,0,0-.288-1.728,3.89,3.89,0,0,0-.848-1.368,3.736,3.736,0,0,0-1.36-.9A5.04,5.04,0,0,0,75.536-10a5.275,5.275,0,0,0-2.256.456,5.281,5.281,0,0,0-1.648,1.176,5.163,5.163,0,0,0-1.016,1.552,4.147,4.147,0,0,0-.344,1.584A4,4,0,0,0,70.464-3.9a2.022,2.022,0,0,0,.472.8.864.864,0,0,0,.6.264.935.935,0,0,0,.664-.344,3.838,3.838,0,0,0,.648-1.048A14.178,14.178,0,0,0,73.488-6a21.854,21.854,0,0,0,.624-2.464,25.078,25.078,0,0,0,.368-2.56Zm10.48-.512q.88.112,1.984.16t2.368.048q.8,0,1.632-.032t1.616-.088q.784-.056,1.392-.1V-9.36l-1.352.08q-.792.048-1.648.08T91.5-9.168q-1.248,0-2.32-.056t-2.048-.12ZM88.48-4.688q-.112.416-.192.816a4.07,4.07,0,0,0-.08.8A1.458,1.458,0,0,0,88.984-1.8a4.876,4.876,0,0,0,2.5.488q1.088,0,2.1-.08T95.5-1.608a14.248,14.248,0,0,0,1.6-.328L97.12.3q-.688.16-1.56.288t-1.872.2q-1,.072-2.12.072A9.74,9.74,0,0,1,88.512.456,3.869,3.869,0,0,1,86.68-.712a2.865,2.865,0,0,1-.616-1.864,6.761,6.761,0,0,1,.112-1.272q.112-.584.192-1.032Zm8.064-8.432q.208.288.44.688t.456.8q.224.4.384.7l-1.3.56q-.24-.5-.584-1.136a11.792,11.792,0,0,0-.664-1.1Zm1.9-.72q.208.3.448.7t.472.792q.232.392.376.68l-1.28.544q-.256-.5-.608-1.128a9.577,9.577,0,0,0-.688-1.08Zm10.7,4.9h5.728V-7.2h-5.728Zm0,3.792h5.728v1.728h-5.728Zm0,3.776h5.728V.368h-5.728Zm-.912-11.36h7.536V1.2h-1.92V-10.912H110.08V1.3h-1.84Zm-6.72,2.448h6.144V-8.48H101.52Zm2.3-3.312h1.84V1.424h-1.84Zm-.1,4.544,1.136.4q-.192.976-.48,2.008t-.656,2.016a18.348,18.348,0,0,1-.8,1.84,8.652,8.652,0,0,1-.912,1.464,5.945,5.945,0,0,0-.4-.92,8.848,8.848,0,0,0-.512-.872,8.838,8.838,0,0,0,.832-1.232,15.631,15.631,0,0,0,.744-1.5q.344-.792.616-1.616A14.566,14.566,0,0,0,103.728-9.056Zm1.808,1.408a6.77,6.77,0,0,1,.512.552q.336.392.712.856t.7.856q.328.392.456.552l-1.1,1.552q-.176-.352-.448-.832t-.592-.976q-.32-.5-.616-.944t-.5-.752ZM127.552-9.1l1.184-1.264q.688.384,1.512.88t1.584,1a14.433,14.433,0,0,1,1.24.9l-1.28,1.456a9.539,9.539,0,0,0-1.168-.96q-.736-.528-1.552-1.056T127.552-9.1Zm1.1,2.3h.96v2.432a3.321,3.321,0,0,0,.1.736,4.143,4.143,0,0,0,.328.888,4.016,4.016,0,0,0,.648.928,5.849,5.849,0,0,0,1.04.88,7.447,7.447,0,0,0,1.488.76q-.24.336-.576.816t-.528.816A5.582,5.582,0,0,1,130.76.72a6.369,6.369,0,0,1-1.032-.952,6.107,6.107,0,0,1-.7-.992,4.516,4.516,0,0,1-.384-.856,4.46,4.46,0,0,1-.424.848,6.057,6.057,0,0,1-.776.984A6.908,6.908,0,0,1,126.312.7a7.27,7.27,0,0,1-1.48.76q-.112-.224-.3-.52T124.144.36a6,6,0,0,0-.384-.472,7.248,7.248,0,0,0,1.592-.752,6.144,6.144,0,0,0,1.112-.9,4.767,4.767,0,0,0,.712-.944,3.586,3.586,0,0,0,.368-.9,3.275,3.275,0,0,0,.1-.752V-6.8Zm-.864-6.8h1.888a24.162,24.162,0,0,1-.248,2.624,7.416,7.416,0,0,1-.64,2.12,4.8,4.8,0,0,1-1.328,1.64A7.832,7.832,0,0,1,125.136-6a3.612,3.612,0,0,0-.448-.808,3.729,3.729,0,0,0-.624-.712,6.257,6.257,0,0,0,1.984-.936,3.61,3.61,0,0,0,1.08-1.3,5.579,5.579,0,0,0,.488-1.7Q127.744-12.4,127.792-13.6Zm-2.352.96,1.568.3a7.11,7.11,0,0,1-.432,1.632,4.043,4.043,0,0,1-.848,1.36L124.24-10a3.743,3.743,0,0,0,.752-1.168A6.465,6.465,0,0,0,125.44-12.64ZM125.248-5.7l1.68.336a8.232,8.232,0,0,1-.536,1.816,4.6,4.6,0,0,1-.968,1.48l-1.568-.8a3.606,3.606,0,0,0,.872-1.232A7.1,7.1,0,0,0,125.248-5.7Zm5.84-7.056,1.84.576q-.4.72-.808,1.416t-.744,1.192l-1.44-.544q.208-.352.432-.816t.416-.944A8.742,8.742,0,0,0,131.088-12.752Zm.1,6.944,1.888.592L132.2-3.728a13.459,13.459,0,0,1-.824,1.264l-1.488-.544a9.863,9.863,0,0,0,.48-.872q.24-.488.456-1T131.184-5.808Zm-12.352-2.88h4.832v1.456h-4.832Zm.064-4.4h4.736v1.44H118.9ZM118.832-6.5h4.832v1.44h-4.832Zm-.752-4.448h6.112v1.52H118.08Zm1.584,6.656H123.7V.592h-4.032V-.928h2.384v-1.84h-2.384Zm-.864,0h1.616v5.5H118.8Z" transform="translate(1295 1195)" fill="#f57f6a"/>
          <g id="icon-path-3" data-name="icon-path" transform="translate(1338 1112)" clip-path="url(#clip-path)">
            <g id="icon-5" data-name="icon" transform="translate(-472 -1270)" clip-path="url(#clip-path-3)">
              <g id="icon-6" data-name="icon" transform="translate(472 1270)">
                <path id="パス_321" data-name="パス 321" d="M27.139,119.866H20.179A12.089,12.089,0,0,1,8.1,107.79V95.87A11.944,11.944,0,0,1,8.6,92.492c.036-.118.065-.238.106-.354h0c0-.005,0-.01,0-.015H8.214A8.226,8.226,0,0,0,0,100.343V114.33c0,4.066,3.654,6.249,6.848,7.359l-.174,5.544A1.394,1.394,0,0,0,8.057,128.6a1.394,1.394,0,0,0,.935-.366l9.474-5.683H28.957c.2,0,.4-.023.6-.037.14-.007.277-.009.417-.015l-.011-.01h.021Z" transform="translate(0 -83.515)" fill="#fed3c4"/>
                <path id="パス_322" data-name="パス 322" d="M139.566,27.553H121.892a9.762,9.762,0,0,0-9.751,9.751v11.92a9.762,9.762,0,0,0,9.751,9.751h7.868l7.064,6.489a3.925,3.925,0,0,0,6.58-2.846l.051-4.453a9.765,9.765,0,0,0,5.861-8.941V37.3A9.762,9.762,0,0,0,139.566,27.553Zm-.1,35.011-8.18-7.514h-9.4a5.826,5.826,0,0,1-5.826-5.826V37.3a5.826,5.826,0,0,1,5.826-5.826h17.674a5.826,5.826,0,0,1,5.825,5.826v11.92a5.826,5.826,0,0,1-5.825,5.826l-.052,4.508Z" transform="translate(-101.715 -24.948)" fill="#f57f6a"/>
                <path id="パス_323" data-name="パス 323" d="M243.585,131.619h-13.66a.89.89,0,1,0,0,1.779h13.66a.89.89,0,1,0,0-1.779Z" transform="translate(-207.741 -119.339)" fill="#f57f6a"/>
                <path id="パス_324" data-name="パス 324" d="M243.585,181.846h-13.66a.89.89,0,1,0,0,1.779h13.66a.89.89,0,1,0,0-1.779Z" transform="translate(-207.741 -164.896)" fill="#f57f6a"/>
                <path id="パス_325" data-name="パス 325" d="M237.346,232.072h-7.421a.89.89,0,0,0,0,1.78h7.421a.89.89,0,0,0,0-1.78Z" transform="translate(-207.742 -210.453)" fill="#f57f6a"/>
              </g>
            </g>
          </g>
        </g>
      </g>
      <g id="Point-5" data-name="Point" transform="translate(199 496)">
        <g id="back-6" data-name="back">
          <g id="楕円形_14-5" data-name="楕円形 14" transform="translate(1261 1060)" fill="#fff" stroke="#f57f6a" stroke-width="2">
            <circle cx="100" cy="100" r="100" stroke="none"/>
            <circle cx="100" cy="100" r="99" fill="none"/>
          </g>
          <circle id="楕円形_19-5" data-name="楕円形 19" cx="90" cy="90" r="90" transform="translate(1271 1070)" fill="#f9f3ee"/>
        </g>
        <g id="text-5" data-name="text" transform="translate(0 4)">
          <path id="パス_410" data-name="パス 410" d="M-59.392-4.368h5.536v1.344h-5.536ZM-61.376-12.5h9.552v1.36h-9.552Zm.432,2.016h8.688V-9.2h-8.688Zm-.928,1.952h10.56v1.376h-10.56Zm2.5,6.224h5.536V-.96h-5.536ZM-60.8-6.528h6.848V-5.12h-5.072V1.44H-60.8Zm6.576,0H-52.4V-.4a2.653,2.653,0,0,1-.152.992,1.057,1.057,0,0,1-.6.56,3.013,3.013,0,0,1-1.024.24q-.608.048-1.456.032a4.916,4.916,0,0,0-.2-.824,6.617,6.617,0,0,0-.312-.808q.5.032.984.032h.648q.288,0,.288-.256ZM-57.6-13.6h1.9v5.536h-1.9Zm-6.9,0h1.744V1.424H-64.5Zm-1.376,3.168,1.344.176a13.852,13.852,0,0,1-.088,1.472q-.088.816-.216,1.616a12.639,12.639,0,0,1-.3,1.424l-1.392-.48a10.242,10.242,0,0,0,.3-1.288q.128-.728.224-1.5T-65.872-10.432Zm2.848-.48,1.184-.5q.272.544.544,1.192a10.106,10.106,0,0,1,.4,1.1l-1.264.608a10.485,10.485,0,0,0-.368-1.152Q-62.784-10.352-63.024-10.912Zm22.08,3.5h4.88v1.52h-4.88Zm-.96-5.5h5.888v1.68H-40.16V1.424H-41.9Zm4.928,0H-35.2v3.024a2.545,2.545,0,0,1-.16.984,1.085,1.085,0,0,1-.64.568,3.491,3.491,0,0,1-1.12.232q-.656.04-1.536.04a5.833,5.833,0,0,0-.216-.848,5.27,5.27,0,0,0-.328-.8q.4.016.792.024t.7,0q.3-.008.416-.008a.679.679,0,0,0,.248-.056.175.175,0,0,0,.072-.168Zm-1.952,6.64a13.178,13.178,0,0,0,1.056,2.528A10.087,10.087,0,0,0-36.3-1.592,7.647,7.647,0,0,0-34.272-.064a5.452,5.452,0,0,0-.672.7,5.872,5.872,0,0,0-.576.816A8.483,8.483,0,0,1-37.632-.376,12.093,12.093,0,0,1-39.24-2.9,19.5,19.5,0,0,1-40.384-5.92Zm2.32-1.136h.32l.32-.064,1.152.416a18.3,18.3,0,0,1-.88,3.424,12.916,12.916,0,0,1-1.48,2.9,9.386,9.386,0,0,1-2.1,2.2,3.988,3.988,0,0,0-.576-.7A6.553,6.553,0,0,0-40.544.16a7.87,7.87,0,0,0,1.912-1.9A10.535,10.535,0,0,0-37.32-4.224a13.624,13.624,0,0,0,.712-2.816Zm-12.336-4.768h6.16v1.6h-6.16Zm-.1,9.024h6.432v1.616H-49.04Zm-.48-6.336h7.328v1.616H-49.52ZM-49.184-6h6.752v1.616h-6.752Zm2.528-7.552h1.776V-8.88h-1.776Zm0,8.224h1.776v6.72h-1.776Zm2.16-2.784,1.6.4q-.24.544-.448,1.056t-.4.88l-1.376-.368q.112-.288.232-.632t.232-.7A4.663,4.663,0,0,0-44.5-8.112Zm-4,.4,1.424-.368a7.64,7.64,0,0,1,.408,1,5.036,5.036,0,0,1,.232.936l-1.488.416a5.678,5.678,0,0,0-.216-.952Q-48.3-7.232-48.5-7.712Zm15.664,4.144q.96-.192,2.288-.5t2.672-.632l.24,1.792q-1.216.352-2.464.7t-2.3.616Zm4.128-9.92h1.856V1.424H-28.7Zm-3.008,1.76h1.776V-3.12h-1.776Zm5.424-.784H-19.6v1.888h-6.688Zm6.224,0h.336l.352-.08,1.28.384a26.369,26.369,0,0,1-1.368,6.08,15.439,15.439,0,0,1-2.5,4.488,12.932,12.932,0,0,1-3.592,3.048A6.219,6.219,0,0,0-25.92.84q-.224-.312-.48-.608a4.658,4.658,0,0,0-.48-.488,9.75,9.75,0,0,0,2.536-1.816A12.057,12.057,0,0,0-22.336-4.72,17.015,17.015,0,0,0-20.9-8.1a22.47,22.47,0,0,0,.832-4Zm-3.856,2A23.179,23.179,0,0,0-22.656-6.2a13.439,13.439,0,0,0,2.08,3.536A9.07,9.07,0,0,0-17.488-.256a5.239,5.239,0,0,0-.488.488q-.264.3-.5.616a5.373,5.373,0,0,0-.384.576,10.583,10.583,0,0,1-3.28-2.768,15.292,15.292,0,0,1-2.192-3.92,31.065,31.065,0,0,1-1.424-4.912Zm8.288,6.768H-1.168v1.52H-15.632Zm3.072-5.968h9.7v1.248h-9.7Zm0,1.92h9.728v1.264H-12.56Zm-.384-4.064h10.88v1.488h-10.88Zm4,.944H-7.1V-5.3h-1.84Zm-.448,6.144h1.9V1.424h-1.9Zm-.16,1.648,1.44.72a12.166,12.166,0,0,1-1.4,1.16,15.327,15.327,0,0,1-1.7,1.056,19.529,19.529,0,0,1-1.856.872,17.436,17.436,0,0,1-1.856.64Q-15.152.976-15.5.5a5.975,5.975,0,0,0-.656-.76q.912-.192,1.856-.488t1.832-.672a15.149,15.149,0,0,0,1.64-.808A7.889,7.889,0,0,0-9.552-3.12Zm2.288-.048a8.369,8.369,0,0,0,1.256.9,13.984,13.984,0,0,0,1.6.808q.872.376,1.8.672t1.824.5a3.285,3.285,0,0,0-.432.456q-.224.28-.432.568a5.869,5.869,0,0,0-.336.512A16.918,16.918,0,0,1-3.832.608,18.994,18.994,0,0,1-5.656-.256,16.668,16.668,0,0,1-7.328-1.288,12.48,12.48,0,0,1-8.736-2.432ZM-8.16-13.6l2.16.272q-.368.7-.776,1.36t-.744,1.1l-1.7-.32q.288-.528.592-1.2A9.5,9.5,0,0,0-8.16-13.6Zm-4.1-.032,1.984.4q-.544.928-1.2,1.84a19.387,19.387,0,0,1-1.456,1.784A15.291,15.291,0,0,1-14.72-7.952a3.712,3.712,0,0,0-.384-.456q-.24-.248-.5-.48a3.592,3.592,0,0,0-.472-.36,12.122,12.122,0,0,0,1.624-1.384,13.345,13.345,0,0,0,1.288-1.52A10.838,10.838,0,0,0-12.256-13.632Zm-1.536,2.752h1.808v5.04H-1.6V-4.4H-13.792ZM8.4-8.112a1.831,1.831,0,0,1,1.032.264,2.137,2.137,0,0,1,.728.736,1.976,1.976,0,0,1,.272,1.032,1.839,1.839,0,0,1-.264,1.024,2.114,2.114,0,0,1-.736.736A1.976,1.976,0,0,1,8.4-4.048a1.839,1.839,0,0,1-1.024-.264,2.073,2.073,0,0,1-.736-.752A2,2,0,0,1,6.368-6.08a1.831,1.831,0,0,1,.264-1.032,2.094,2.094,0,0,1,.752-.728A2,2,0,0,1,8.4-8.112Zm21.328-5.52,1.392,1.6q-1.232.32-2.68.552t-3,.4q-1.552.168-3.12.272t-3.024.152a6.142,6.142,0,0,0-.192-.872,6.221,6.221,0,0,0-.288-.824q1.44-.048,2.952-.16t2.96-.272q1.448-.16,2.728-.368A22.014,22.014,0,0,0,29.728-13.632ZM18.976-9.088h12.64v1.84H18.976Zm-1.1,3.728h14.7v1.888h-14.7Zm6.352-6h2v10.5A2.773,2.773,0,0,1,25.992.424a1.554,1.554,0,0,1-.824.664,5.343,5.343,0,0,1-1.448.272q-.888.064-2.12.048a3.234,3.234,0,0,0-.184-.616Q21.28.448,21.12.1t-.3-.6l1.2.032q.592.016,1.056.016h.656a.656.656,0,0,0,.384-.112A.424.424,0,0,0,24.224-.9Zm19.744-2.256h1.888v4.528H43.968ZM40.64-12.352h8.624v1.568H40.64ZM41.2-9.84h7.6v1.552H41.2Zm-.624,2.272h8.848v3.184h-1.68v-1.7H42.176v1.7h-1.6ZM45.392-5.28H47.1V-.848a1.119,1.119,0,0,0,.048.424q.048.088.208.088H47.9a.2.2,0,0,0,.176-.136,2.012,2.012,0,0,0,.1-.56q.04-.424.056-1.288a2.931,2.931,0,0,0,.72.4,6.993,6.993,0,0,0,.816.288A9.031,9.031,0,0,1,49.512.144a1.6,1.6,0,0,1-.528.888,1.512,1.512,0,0,1-.9.248H47.056a2.209,2.209,0,0,1-1.04-.2,1.023,1.023,0,0,1-.5-.664,4.947,4.947,0,0,1-.128-1.264Zm-2.9.016h1.728v1.3a7.978,7.978,0,0,1-.12,1.32A5.632,5.632,0,0,1,43.64-1.2,5.033,5.033,0,0,1,42.616.216,6.8,6.8,0,0,1,40.8,1.456a4.183,4.183,0,0,0-.592-.664q-.384-.36-.7-.616A7.011,7.011,0,0,0,41.088-.848,4.206,4.206,0,0,0,42-1.952a3.664,3.664,0,0,0,.4-1.088,5.56,5.56,0,0,0,.1-.992Zm-5.632-8.32,1.664.592q-.32.624-.672,1.272t-.688,1.248q-.336.6-.64,1.048l-1.28-.528q.288-.5.592-1.12t.584-1.3A12.03,12.03,0,0,0,36.864-13.584Zm1.808,1.9,1.568.7q-.592.9-1.28,1.888t-1.376,1.9q-.688.912-1.312,1.6l-1.1-.608q.448-.544.936-1.224t.96-1.424q.472-.744.888-1.48T38.672-11.68ZM34.4-9.84l.944-1.3q.4.384.832.832t.8.9a3.922,3.922,0,0,1,.544.832L36.5-7.12a5.358,5.358,0,0,0-.52-.864q-.344-.48-.76-.968T34.4-9.84Zm3.728,1.984L39.472-8.4a11.606,11.606,0,0,1,.608,1.152q.288.624.512,1.208a6.849,6.849,0,0,1,.32,1.048l-1.456.64a5.848,5.848,0,0,0-.272-1.072q-.208-.608-.48-1.24T38.128-7.856Zm-3.776,1.28q1.072-.048,2.528-.136T39.84-6.9l.032,1.568q-1.408.112-2.808.216t-2.52.2ZM38.576-3.84l1.328-.4a11.809,11.809,0,0,1,.52,1.456,8.5,8.5,0,0,1,.3,1.36L39.3-.96a9.033,9.033,0,0,0-.248-1.384A11.747,11.747,0,0,0,38.576-3.84ZM35.04-4.192l1.536.272A21.1,21.1,0,0,1,36.2-1.656a10.375,10.375,0,0,1-.584,1.88,3.355,3.355,0,0,0-.416-.24q-.256-.128-.528-.248t-.464-.184a6.866,6.866,0,0,0,.544-1.728Q34.944-3.184,35.04-4.192Zm1.744-1.52h1.664V1.44H36.784Zm16.64-5.776q1.76.208,3.24.248a26.806,26.806,0,0,0,2.744-.056,21.023,21.023,0,0,0,2.112-.288,17.977,17.977,0,0,0,1.984-.5l.256,1.84q-.864.24-1.872.416t-2.064.272q-1.232.1-2.84.088t-3.448-.184Zm-.288,3.36q1.456.128,2.784.176t2.5,0Q59.584-8,60.544-8.08a16.061,16.061,0,0,0,2.224-.328q.928-.216,1.616-.408l.32,1.888q-.72.176-1.584.336t-1.84.272q-1.024.1-2.344.152t-2.776.032q-1.456-.024-2.912-.1ZM58.48-11.04q-.112-.448-.256-.888t-.32-.9l2.16-.24q.1.752.248,1.48t.352,1.4q.2.672.392,1.3.192.544.5,1.24t.68,1.392q.368.7.736,1.256.16.224.328.424a3.4,3.4,0,0,0,.392.392L62.72-2.72q-.448-.1-1.112-.192t-1.376-.176l-1.3-.144.16-1.52q.5.048,1.08.1t.936.1a19.868,19.868,0,0,1-1.1-2.1q-.456-1.024-.76-1.9-.192-.56-.32-.968T58.7-10.3Q58.592-10.656,58.48-11.04ZM56.208-4.416a5.725,5.725,0,0,0-.5.824,2.133,2.133,0,0,0-.208.952,1.32,1.32,0,0,0,.824,1.272,5.8,5.8,0,0,0,2.408.392q1.136,0,2.152-.1t1.864-.256L62.64.7q-.832.144-1.872.224t-2.016.08a9.993,9.993,0,0,1-2.76-.336,3.757,3.757,0,0,1-1.8-1.048,2.72,2.72,0,0,1-.656-1.848,3.915,3.915,0,0,1,.2-1.384A12.393,12.393,0,0,1,54.224-4.8Zm-92.96,17.6q-.016.336-.04.728t-.024.872q0,.416,0,1.008t0,1.176q0,.584,0,.984a18.3,18.3,0,0,1-.12,2.24,8.794,8.794,0,0,1-.36,1.68,5.962,5.962,0,0,1-.584,1.272,7.406,7.406,0,0,1-.792,1.048,6.545,6.545,0,0,1-1.216,1.032,9.664,9.664,0,0,1-1.384.768,12.927,12.927,0,0,1-1.288.5l-1.68-1.76a9.43,9.43,0,0,0,2.168-.76,5.985,5.985,0,0,0,1.688-1.256,5.073,5.073,0,0,0,.672-.928,4.1,4.1,0,0,0,.392-1.032,8.34,8.34,0,0,0,.192-1.288q.056-.72.056-1.648v-3.04q0-.48-.024-.872t-.072-.728Zm-7.424.128q-.016.288-.032.568t-.016.664v5.408q0,.3.016.7t.032.688H-46.5q.016-.224.048-.64t.032-.768q0-.224,0-.656t0-.984q0-.552,0-1.136t0-1.112q0-.528,0-.928t0-.576q0-.224-.016-.584t-.048-.648Zm15.28,11.36a12.513,12.513,0,0,0,3.272-1.952,12.24,12.24,0,0,0,2.2-2.4,9.344,9.344,0,0,0,1.3-2.56,21.332,21.332,0,0,0,.592-2.272A7.7,7.7,0,0,0-21.36,14.4a6.432,6.432,0,0,0,.032-.848l2.592.352q-.144.464-.272,1l-.208.872a21.8,21.8,0,0,1-.824,2.84,13.428,13.428,0,0,1-1.4,2.776,13.96,13.96,0,0,1-2.288,2.72A13.333,13.333,0,0,1-26.992,26.3Zm-.336-11.04q.3.416.688,1.04t.776,1.3q.392.68.736,1.3t.568,1.04l-2.112,1.2q-.288-.656-.648-1.336t-.728-1.344q-.368-.664-.712-1.216t-.616-.936Zm14.7,4.56.736.04q.448.024.936.04t.9.016H-3.36q.56,0,1.056-.04t.816-.056V20.7l-.816-.048q-.544-.032-1.056-.032h-8.592q-.688,0-1.408.024t-1.168.056Zm27.872-3.44q-.1.144-.28.448a3.416,3.416,0,0,0-.28.56q-.336.752-.824,1.68t-1.1,1.864a18.443,18.443,0,0,1-1.3,1.752,26.689,26.689,0,0,1-1.976,1.992A21.649,21.649,0,0,1,5.3,24.856a17.421,17.421,0,0,1-2.44,1.416L1.216,24.544A14.885,14.885,0,0,0,3.728,23.3a18.762,18.762,0,0,0,2.256-1.632,18.675,18.675,0,0,0,1.792-1.712,14.385,14.385,0,0,0,1-1.3,15.265,15.265,0,0,0,.84-1.368,6.936,6.936,0,0,0,.544-1.256H4.736q-.336,0-.7.024l-.7.048q-.328.024-.5.04V13.872q.24.016.592.048t.712.048q.36.016.6.016h5.648a6.75,6.75,0,0,0,.968-.064,4.158,4.158,0,0,0,.68-.144ZM9.76,19.728q.624.5,1.328,1.152t1.392,1.36q.688.7,1.272,1.352t.984,1.128L12.912,26.3q-.592-.816-1.352-1.7t-1.6-1.752q-.84-.872-1.7-1.656Zm8.08-6.656H31.792V15.04H17.84Zm7.728,5.376L27.056,17.2q.64.464,1.384,1.016t1.488,1.144q.744.592,1.384,1.16T32.4,21.552L30.768,23.04a12.759,12.759,0,0,0-1.016-1.064q-.616-.584-1.328-1.208t-1.456-1.216Q26.224,18.96,25.568,18.448Zm-.64-4.64,2.128.752a23.381,23.381,0,0,1-2.168,3.28,21.074,21.074,0,0,1-2.824,2.952A17.833,17.833,0,0,1,18.656,23.1a5.373,5.373,0,0,0-.384-.576q-.24-.32-.488-.632t-.456-.536a13.5,13.5,0,0,0,2.448-1.448,17.889,17.889,0,0,0,2.136-1.864,16.992,16.992,0,0,0,1.744-2.088A14.935,14.935,0,0,0,24.928,13.808ZM23.76,17.68l2.1-2.1V27.008h-2.1ZM41.6,20.512h6.352v1.776H41.6Zm-3.28.9a5.273,5.273,0,0,0,1.128,1.864,4.917,4.917,0,0,0,1.592,1.1A7.51,7.51,0,0,0,43,24.9a16.517,16.517,0,0,0,2.216.144h2.376q.488,0,.9-.008t.688-.008a2.834,2.834,0,0,0-.28.544,6.133,6.133,0,0,0-.232.688q-.1.352-.16.624H45.1a17.537,17.537,0,0,1-2.736-.2,7.821,7.821,0,0,1-2.312-.728,6.189,6.189,0,0,1-1.88-1.48A8.306,8.306,0,0,1,36.752,22Zm2.416-3.344H42.72v7.9l-1.984-.624Zm-2.7-3.536V16.72h7.376V14.528Zm-1.92-1.84H47.44v5.856H36.112Zm.7,6.8,2,.24a24.706,24.706,0,0,1-.616,2.7,12.34,12.34,0,0,1-1.048,2.56A6.631,6.631,0,0,1,35.5,26.976a4.265,4.265,0,0,0-.392-.44q-.248-.248-.5-.48a4.651,4.651,0,0,0-.464-.376,5.209,5.209,0,0,0,1.416-1.712,9.974,9.974,0,0,0,.832-2.2A17.7,17.7,0,0,0,36.816,19.488Z" transform="translate(1362 1195)" fill="#f57f6a"/>
          <g id="icon-path-4" data-name="icon-path" transform="translate(1338 1112)" clip-path="url(#clip-path)">
            <g id="icon-7" data-name="icon" transform="translate(-472 -1270)" clip-path="url(#clip-path-3)">
              <g id="icon-8" data-name="icon" transform="translate(472 1270)">
                <path id="パス_326" data-name="パス 326" d="M153.912,172.361a1.009,1.009,0,0,0-.021-.452,1.1,1.1,0,0,0-1.074-.835,1.315,1.315,0,0,0-.274.034l-10.9,2.764a2.854,2.854,0,0,0-3.085-.835L133,167.729a1.25,1.25,0,0,0-.671-.336,1.294,1.294,0,0,0-1.122,2.21l5.549,5.3a3.031,3.031,0,0,0-.082.363,2.779,2.779,0,0,0,.445,2.025l-8.956,8.019a.464.464,0,0,0-.041.65.457.457,0,0,0,.65.034l8.963-8.026a2.875,2.875,0,0,0,1.286.561,2.8,2.8,0,0,0,1.45-.149l.018-.006a2.842,2.842,0,0,0,.408-.194l.051-.03a2.864,2.864,0,0,0,.354-.252l.043-.038a2.827,2.827,0,0,0,.317-.322l.006-.007a2.821,2.821,0,0,0,.624-1.348,1.93,1.93,0,0,0,.027-.2l10.769-2.73A1.1,1.1,0,0,0,153.912,172.361Zm-13.923,4.28a1.029,1.029,0,0,1-.671.119,1.342,1.342,0,0,1-.178-.048h-.007a1.052,1.052,0,0,1-.636-.65.928.928,0,0,1-.041-.479v-.027a1.048,1.048,0,0,1,.841-.862h.007l.007.007.014-.007a.891.891,0,0,1,.328,0,1.114,1.114,0,0,1,.144.034,1.04,1.04,0,0,1,.718,1.17.92.92,0,0,1-.054.205,1.014,1.014,0,0,1-.419.5C140.025,176.618,140.007,176.631,139.989,176.641Z" transform="translate(-115.16 -150.981)" fill="#f57f6a"/>
                <path id="パス_327" data-name="パス 327" d="M23.037,0a23.033,23.033,0,1,0,23.03,23.036A23.059,23.059,0,0,0,23.037,0Zm0,44.014A20.981,20.981,0,1,1,44.014,23.036,20.982,20.982,0,0,1,23.037,44.014Z" transform="translate(1.333 1.333)" fill="#fed3c4"/>
                <path id="パス_328" data-name="パス 328" d="M248.377,53.332c.2-.007.4-.014.6-.014.123,0,.253,0,.383.007h.062l.073-2.513,0-.072h0v-.014h-.075c-.151-.007-.3-.007-.445-.007-.225,0-.45.007-.669.014h-.022Z" transform="translate(-224.609 -44.821)" fill="#fed3c4"/>
                <path id="パス_329" data-name="パス 329" d="M148.154,78.517q.411-.257.842-.492l-1.234-2.252-.011-.02h0l-.007-.013c-.315.177-.635.362-.939.558l-.027.016h0l-.012.007Z" transform="translate(-132.227 -67.591)" fill="#fed3c4"/>
                <path id="パス_330" data-name="パス 330" d="M76.822,151.246c.15-.287.315-.568.479-.848l-2.217-1.355c-.19.309-.367.63-.539.946l-.015.027h0l-.007.013Z" transform="translate(-66.484 -134.3)" fill="#fed3c4"/>
                <path id="パス_331" data-name="パス 331" d="M408.434,148.293l.022-.012h0l.013-.007c-.178-.317-.364-.633-.555-.944l-.013-.023h0l-.007-.012-2.2,1.375c.171.281.335.561.493.849Z" transform="translate(-367.855 -132.71)" fill="#fed3c4"/>
                <path id="パス_332" data-name="パス 332" d="M53.323,251.292h.014c-.014-.308-.014-.609-.007-.924v-.089H52.017l-1.279-.1-.007.082c-.007.151-.007.3-.007.452,0,.226.007.445.014.671l2.54-.093Z" transform="translate(-44.827 -226.34)" fill="#fed3c4"/>
                <path id="パス_333" data-name="パス 333" d="M339.774,77.606l1.362-2.217c-.31-.191-.627-.369-.949-.54l-.024-.014h0l-.012-.007L338.939,77.1l-.006.012h0l-.007.013C339.213,77.27,339.494,77.435,339.774,77.606Z" transform="translate(-307.098 -66.762)" fill="#fed3c4"/>
                <path id="パス_334" data-name="パス 334" d="M434.909,250.012v-.034c.013-.357.012-.695,0-1.033,0-.013,0-.028,0-.041h0s0-.01,0-.014l-2.6.089c.007.308.014.616,0,.924l2.6.123v-.014Z" transform="translate(-392.079 -225.163)" fill="#fed3c4"/>
                <path id="パス_335" data-name="パス 335" d="M341.069,405.554l0,0h0l-.007-.012q-.411.257-.842.493l1.239,2.285c.318-.169.629-.352.935-.545l.038-.022h0l.013-.007Z" transform="translate(-308.274 -367.718)" fill="#fed3c4"/>
                <path id="パス_336" data-name="パス 336" d="M75.683,341.533l-.008,0h0l-.013.007c.185.328.376.657.575.978l2.2-1.382c-.171-.28-.335-.561-.493-.848Z" transform="translate(-67.522 -308.341)" fill="#fed3c4"/>
                <path id="パス_337" data-name="パス 337" d="M406.883,338.785l-.009-.005h0l-.013-.007c-.15.287-.315.568-.486.848l2.217,1.362c.19-.308.372-.622.543-.943l.018-.03h0l.007-.012Z" transform="translate(-368.478 -306.959)" fill="#fed3c4"/>
                <path id="パス_338" data-name="パス 338" d="M252.106,432.309c-.192,0-.376.007-.561.007-.13,0-.26,0-.39-.007l-.062,1.751v.849c.151.007.3.007.452.007.209,0,.413,0,.621-.007h.029Z" transform="translate(-227.168 -392.079)" fill="#fed3c4"/>
                <path id="パス_339" data-name="パス 339" d="M150.25,406.527l-1.343,2.2,0,.007h0l-.007.012c.322.2.65.383.985.561l1.2-2.27.009-.016h0l.007-.013C150.812,406.856,150.531,406.691,150.25,406.527Z" transform="translate(-134.166 -368.617)" fill="#fed3c4"/>
              </g>
            </g>
          </g>
        </g>
      </g>
    </g>
  </g>
</svg>
