<svg xmlns="http://www.w3.org/2000/svg" xmlns:xlink="http://www.w3.org/1999/xlink" width="180" height="40" viewBox="0 0 180 40">
  <defs>
    <clipPath id="clip-path">
      <rect id="長方形_136" data-name="長方形 136" width="180" height="40" fill="none"/>
    </clipPath>
    <clipPath id="clip-path-2">
      <rect id="長方形_162" data-name="長方形 162" width="178.305" height="40" fill="none"/>
    </clipPath>
  </defs>
  <g id="logo" transform="translate(40)">
    <g id="グループ_7" data-name="グループ 7" transform="translate(-40)" clip-path="url(#clip-path)">
      <g id="グループ_45" data-name="グループ 45" transform="translate(0 0)">
        <g id="グループ_44" data-name="グループ 44" transform="translate(0 0)" clip-path="url(#clip-path-2)">
          <path id="パス_295" data-name="パス 295" d="M25.57,20.1l-.084-.122c-.178-.257-.436-.623-.581-.834l-1.7-2.475c-.32-.437-.624-.519-1.63-.407-4.1.455-5.659-4.919-2.316-6.609a1.48,1.48,0,0,0,1.017-1.337V7.145a1.361,1.361,0,0,0-1.5-1.235H15.333L15.249,5.2c0-6.746-9.882-7.089-9.882-.114l-.013.82h-3.6C.43,5.91-.079,6.531.011,7.549l.356,2.4a.821.821,0,0,0,.983.582L3.09,9.706l.146-.071a3.852,3.852,0,0,1,2.95,7.117,3.663,3.663,0,0,1-.48.157l-1.758.509c-1.93.635-1.913,2.217-1.283,3.847l.39.9A57.245,57.245,0,0,0,9.523,32.769a1.238,1.238,0,0,0,2.239-.944C9.1,21.92,19.019,18.438,24.213,21.189c.065.034.129.072.195.107.953.505,1.761-.321,1.162-1.2" transform="translate(0 0)" fill="#ff8a7a"/>
          <path id="パス_296" data-name="パス 296" d="M23.49,81.092c0,.842-3.208,1.525-7.166,1.525s-7.166-.683-7.166-1.525,3.209-1.525,7.166-1.525,7.166.683,7.166,1.525" transform="translate(-4.906 -42.616)" fill="#ff8a7a"/>
          <path id="パス_297" data-name="パス 297" d="M244.228,50.068a8.861,8.861,0,0,1-3.448-.485c-.652-.324-.978-1.046-.978-2.5v-.469h-1.778V47.63c0,2.608,1.657,4.149,6.2,4.149a25.15,25.15,0,0,0,3.976-.323l-.194-1.694a24.429,24.429,0,0,1-3.782.307" transform="translate(-127.485 -24.966)" fill="#070707"/>
          <path id="パス_298" data-name="パス 298" d="M245.274,32.826a14.645,14.645,0,0,1-.485-1.7q1.309-.048,3.96-.177l-.049-1.374q-2.779.13-4.154.177-.13-.937-.178-1.778l-1.632.081a12.949,12.949,0,0,0,.145,1.746q-3.071.1-6.061.1v1.374q3.1,0,6.3-.1.21.938.453,1.7-4.348.114-7.4.113v1.374q3.637,0,7.9-.129a18.141,18.141,0,0,0,1.957,3.534l1.308-.867a19.136,19.136,0,0,1-1.536-2.715l1.059-.049,1.245-.056q.557-.024,1.043-.041l-.048-1.374q-1.31.065-3.831.162" transform="translate(-126.494 -14.985)" fill="#070707"/>
          <path id="パス_299" data-name="パス 299" d="M282.082,36.852a27.418,27.418,0,0,0-5.9.953l.355,1.52a25.766,25.766,0,0,1,5.382-.905,4.073,4.073,0,0,1,2.57.655,2.5,2.5,0,0,1,.808,2.061,2.766,2.766,0,0,1-1.616,2.586,11.7,11.7,0,0,1-5.189.856l.113,1.535q8.421,0,8.421-5.14,0-4.121-4.946-4.122" transform="translate(-147.923 -19.738)" fill="#070707"/>
          <path id="パス_300" data-name="パス 300" d="M319.961,30.923h-2.416q.339-1.583.582-3.151l-1.568-.178q-.242,1.455-.663,3.33h-3.022v1.455h2.667a56.679,56.679,0,0,1-2.877,8.6l1.487.566a58.693,58.693,0,0,0,3.055-9.165H319.1c.822,0,1.493.082,1.584,1.164q.032.388.032.663v.921a17.646,17.646,0,0,1-.113,2.109,8.343,8.343,0,0,1-.307,1.712c-.5,1.175-2.179.808-3.335.567l-.56,1.525a10.067,10.067,0,0,0,2.449.391,2.868,2.868,0,0,0,2.829-1.5,10.829,10.829,0,0,0,.735-4.558V33.913a8.606,8.606,0,0,0-.073-1.067c-.215-1.72-1.216-1.924-2.376-1.924" transform="translate(-167.461 -14.779)" fill="#070707"/>
          <path id="パス_301" data-name="パス 301" d="M334.694,32.427a56.3,56.3,0,0,1,2.715,8.033l1.568-.372a59.3,59.3,0,0,0-2.764-8.178Z" transform="translate(-179.261 -17.091)" fill="#070707"/>
          <path id="パス_302" data-name="パス 302" d="M370.722,31.918V28.847h-1.616v3.071h-5.172v1.455h5.172v2.182q0,1.035-.04,1.7a5.5,5.5,0,0,1-.2,1.212,3.249,3.249,0,0,1-.372.865,2.276,2.276,0,0,1-.647.606,4.349,4.349,0,0,1-.921.469q-.485.178-1.309.4l.517,1.455a8.723,8.723,0,0,0,2.845-1.2,3.718,3.718,0,0,0,1.35-1.956,12.44,12.44,0,0,0,.4-3.556V33.373h2.505V31.918Z" transform="translate(-194.922 -15.451)" fill="#070707"/>
          <path id="パス_303" data-name="パス 303" d="M355.519,29.16a26.042,26.042,0,0,0-.808,6.643,26.038,26.038,0,0,0,.808,6.643l1.665-.194a25.6,25.6,0,0,1-.776-6.449,25.608,25.608,0,0,1,.776-6.449Z" transform="translate(-189.982 -15.618)" fill="#070707"/>
          <path id="パス_304" data-name="パス 304" d="M91.55,35.988h3.47V34.581H91.091v-2.8h3.516V30.408H91.091V28.65h-1.6v1.758H88.11q.2-.78.306-1.391l-1.453-.229a15.517,15.517,0,0,1-1.024,3.287v-.9H84.258V28.65H82.729v2.523H80.895v1.376h1.559a17.644,17.644,0,0,1-1.911,5.2l.918,1.513a14.873,14.873,0,0,0,1.269-3.012v6.161h1.529V35.315q.183.444.55,1.361l.428,1.07,1.223-.841-.413-.917h3.1a12.219,12.219,0,0,1-4.4,4.173l.642,1.422a14.176,14.176,0,0,0,4.1-3.745v4.571h1.6V37.792a12.2,12.2,0,0,0,3.485,3.791l.658-1.406a10.764,10.764,0,0,1-3.684-4.188m-2.064-1.407H85.4q-.642-1.376-.963-2.033H85.71q-.2.413-.489.917l1.315.688a13.862,13.862,0,0,0,1.147-2.369h1.8Z" transform="translate(-43.139 -15.345)" fill="#070707"/>
          <path id="パス_305" data-name="パス 305" d="M159.98,28.584a31.957,31.957,0,0,1-6.207,4.357l.688,1.36q.993-.535,2.171-1.269v1.162h8.714V33.033q1.177.734,2.171,1.269l.688-1.36A31.944,31.944,0,0,1,162,28.584Zm-3.073,4.28a29.1,29.1,0,0,0,4.082-3.21,29.05,29.05,0,0,0,4.082,3.21Z" transform="translate(-82.36 -15.31)" fill="#070707"/>
          <path id="パス_306" data-name="パス 306" d="M164.614,46.3q.535.933.979,1.743-3.027.382-5.9.581.84-1.65,1.483-3.287h7.139V43.957H155.32v1.376h4.127q-.658,1.621-1.59,3.409-.7.046-2.156.107l.077,1.376a101.211,101.211,0,0,0,10.5-.917q.138.26.39.742t.359.679l1.422-.626q-1.238-2.37-2.446-4.433Z" transform="translate(-83.189 -23.543)" fill="#070707"/>
          <path id="パス_307" data-name="パス 307" d="M197.438,37.455q-.871-.963-2.492-2.538a13.03,13.03,0,0,0,1.361-2.523V30.943h-2.064V28.65h-1.6v2.293h-2.064v1.452h3.974a10.132,10.132,0,0,1-4.4,4.678l.4,1.7a10.656,10.656,0,0,0,2.048-1.422v5.06h1.621V36.232q1.192,1.162,2.155,2.263Z" transform="translate(-101.842 -15.345)" fill="#070707"/>
          <path id="パス_308" data-name="パス 308" d="M208.539,33.3h2.721V31.879h-2.721V28.914H206.9v2.966h-3.21V33.3h3.21v7.292h-3.822V42.06h8.408V40.593h-2.95Z" transform="translate(-108.77 -15.486)" fill="#070707"/>
          <path id="パス_309" data-name="パス 309" d="M125.4,45.647c-.5.1-1.03.189-1.576.276V41.337h2.6v-1.33h-6.8v1.33h2.553v4.825c-.542.072-1.073.136-1.565.189q-.626.068-1.385.145l.229,1.4a47.831,47.831,0,0,0,7.812-1.3L127,45.291q-.72.183-1.6.356" transform="translate(-63.855 -21.428)" fill="#070707"/>
          <path id="パス_310" data-name="パス 310" d="M130.584,39.767c-.927-.2-1.448-1.572-1.688-2.374a21.079,21.079,0,0,1-.52-2.331,31.127,31.127,0,0,1-.374-3.1h1.817l-.193-1.376h-1.7q-.062-1.406-.061-2.262H126.3q0,1.177.046,2.262h-7.919v1.376h7.98a35.807,35.807,0,0,0,.482,4.005,19.248,19.248,0,0,0,.606,2.5q.07.213.143.406a3.553,3.553,0,0,0,4.223,2.45v-1.6a2.907,2.907,0,0,1-1.281.046" transform="translate(-63.432 -15.169)" fill="#070707"/>
          <path id="パス_311" data-name="パス 311" d="M143.687,29.789l.416,2.956h1.461l-.416-2.956Z" transform="translate(-76.958 -15.955)" fill="#070707"/>
        </g>
      </g>
    </g>
  </g>
</svg>
